%TF.GenerationSoftware,KiCad,Pcbnew,9.0.5*%
%TF.CreationDate,2025-11-18T21:13:20-05:00*%
%TF.ProjectId,JayBoard,4a617942-6f61-4726-942e-6b696361645f,rev?*%
%TF.SameCoordinates,Original*%
%TF.FileFunction,Paste,Top*%
%TF.FilePolarity,Positive*%
%FSLAX46Y46*%
G04 Gerber Fmt 4.6, Leading zero omitted, Abs format (unit mm)*
G04 Created by KiCad (PCBNEW 9.0.5) date 2025-11-18 21:13:20*
%MOMM*%
%LPD*%
G01*
G04 APERTURE LIST*
G04 Aperture macros list*
%AMRoundRect*
0 Rectangle with rounded corners*
0 $1 Rounding radius*
0 $2 $3 $4 $5 $6 $7 $8 $9 X,Y pos of 4 corners*
0 Add a 4 corners polygon primitive as box body*
4,1,4,$2,$3,$4,$5,$6,$7,$8,$9,$2,$3,0*
0 Add four circle primitives for the rounded corners*
1,1,$1+$1,$2,$3*
1,1,$1+$1,$4,$5*
1,1,$1+$1,$6,$7*
1,1,$1+$1,$8,$9*
0 Add four rect primitives between the rounded corners*
20,1,$1+$1,$2,$3,$4,$5,0*
20,1,$1+$1,$4,$5,$6,$7,0*
20,1,$1+$1,$6,$7,$8,$9,0*
20,1,$1+$1,$8,$9,$2,$3,0*%
G04 Aperture macros list end*
%ADD10RoundRect,0.050000X-0.050000X-0.387500X0.050000X-0.387500X0.050000X0.387500X-0.050000X0.387500X0*%
%ADD11RoundRect,0.050000X-0.387500X-0.050000X0.387500X-0.050000X0.387500X0.050000X-0.387500X0.050000X0*%
%ADD12RoundRect,0.249999X-0.395001X-0.395001X0.395001X-0.395001X0.395001X0.395001X-0.395001X0.395001X0*%
%ADD13RoundRect,0.140000X0.170000X-0.140000X0.170000X0.140000X-0.170000X0.140000X-0.170000X-0.140000X0*%
%ADD14RoundRect,0.225000X0.225000X0.250000X-0.225000X0.250000X-0.225000X-0.250000X0.225000X-0.250000X0*%
%ADD15R,0.600000X1.450000*%
%ADD16R,0.300000X1.450000*%
%ADD17RoundRect,0.135000X-0.185000X0.135000X-0.185000X-0.135000X0.185000X-0.135000X0.185000X0.135000X0*%
%ADD18RoundRect,0.135000X0.135000X0.185000X-0.135000X0.185000X-0.135000X-0.185000X0.135000X-0.185000X0*%
%ADD19RoundRect,0.200000X-0.800000X0.200000X-0.800000X-0.200000X0.800000X-0.200000X0.800000X0.200000X0*%
%ADD20RoundRect,0.140000X-0.170000X0.140000X-0.170000X-0.140000X0.170000X-0.140000X0.170000X0.140000X0*%
%ADD21RoundRect,0.135000X-0.135000X-0.185000X0.135000X-0.185000X0.135000X0.185000X-0.135000X0.185000X0*%
%ADD22RoundRect,0.140000X0.021213X-0.219203X0.219203X-0.021213X-0.021213X0.219203X-0.219203X0.021213X0*%
%ADD23RoundRect,0.250000X0.450000X0.350000X-0.450000X0.350000X-0.450000X-0.350000X0.450000X-0.350000X0*%
%ADD24RoundRect,0.040000X-0.040000X-0.605000X0.040000X-0.605000X0.040000X0.605000X-0.040000X0.605000X0*%
%ADD25RoundRect,0.062500X-0.387500X-0.062500X0.387500X-0.062500X0.387500X0.062500X-0.387500X0.062500X0*%
%ADD26RoundRect,0.140000X0.140000X0.170000X-0.140000X0.170000X-0.140000X-0.170000X0.140000X-0.170000X0*%
%ADD27RoundRect,0.150000X0.150000X-0.587500X0.150000X0.587500X-0.150000X0.587500X-0.150000X-0.587500X0*%
%ADD28RoundRect,0.140000X-0.140000X-0.170000X0.140000X-0.170000X0.140000X0.170000X-0.140000X0.170000X0*%
G04 APERTURE END LIST*
D10*
%TO.C,U1*%
X228220000Y-92002500D03*
X228620000Y-92002500D03*
X229020000Y-92002500D03*
X229420000Y-92002500D03*
X229820000Y-92002500D03*
X230220000Y-92002500D03*
X230620000Y-92002500D03*
X231020000Y-92002500D03*
X231420000Y-92002500D03*
X231820000Y-92002500D03*
X232220000Y-92002500D03*
X232620000Y-92002500D03*
X233020000Y-92002500D03*
X233420000Y-92002500D03*
D11*
X234257500Y-92840000D03*
X234257500Y-93240000D03*
X234257500Y-93640000D03*
X234257500Y-94040000D03*
X234257500Y-94440000D03*
X234257500Y-94840000D03*
X234257500Y-95240000D03*
X234257500Y-95640000D03*
X234257500Y-96040000D03*
X234257500Y-96440000D03*
X234257500Y-96840000D03*
X234257500Y-97240000D03*
X234257500Y-97640000D03*
X234257500Y-98040000D03*
D10*
X233420000Y-98877500D03*
X233020000Y-98877500D03*
X232620000Y-98877500D03*
X232220000Y-98877500D03*
X231820000Y-98877500D03*
X231420000Y-98877500D03*
X231020000Y-98877500D03*
X230620000Y-98877500D03*
X230220000Y-98877500D03*
X229820000Y-98877500D03*
X229420000Y-98877500D03*
X229020000Y-98877500D03*
X228620000Y-98877500D03*
X228220000Y-98877500D03*
D11*
X227382500Y-98040000D03*
X227382500Y-97640000D03*
X227382500Y-97240000D03*
X227382500Y-96840000D03*
X227382500Y-96440000D03*
X227382500Y-96040000D03*
X227382500Y-95640000D03*
X227382500Y-95240000D03*
X227382500Y-94840000D03*
X227382500Y-94440000D03*
X227382500Y-94040000D03*
X227382500Y-93640000D03*
X227382500Y-93240000D03*
X227382500Y-92840000D03*
D12*
X231620000Y-96240000D03*
X231620000Y-94640000D03*
X230020000Y-96240000D03*
X230020000Y-94640000D03*
%TD*%
D13*
%TO.C,C4*%
X226060000Y-92140000D03*
X226060000Y-91180000D03*
%TD*%
D14*
%TO.C,C13*%
X228185000Y-74620000D03*
X226635000Y-74620000D03*
%TD*%
D13*
%TO.C,C5*%
X234520000Y-91070000D03*
X234520000Y-90110000D03*
%TD*%
%TO.C,C6*%
X231870000Y-87870000D03*
X231870000Y-86910000D03*
%TD*%
D15*
%TO.C,J1*%
X234070000Y-72485000D03*
X233270000Y-72485000D03*
D16*
X232070000Y-72485000D03*
X231070000Y-72485000D03*
X230570000Y-72485000D03*
X229570000Y-72485000D03*
D15*
X228370000Y-72485000D03*
X227570000Y-72485000D03*
X227570000Y-72485000D03*
X228370000Y-72485000D03*
D16*
X229070000Y-72485000D03*
X230070000Y-72485000D03*
X231570000Y-72485000D03*
X232570000Y-72485000D03*
D15*
X233270000Y-72485000D03*
X234070000Y-72485000D03*
%TD*%
D17*
%TO.C,R3*%
X231495000Y-89420000D03*
X231495000Y-90440000D03*
%TD*%
%TO.C,R2*%
X232210000Y-74250000D03*
X232210000Y-75270000D03*
%TD*%
D14*
%TO.C,C14*%
X229195000Y-80390000D03*
X227645000Y-80390000D03*
%TD*%
D18*
%TO.C,R5*%
X231270000Y-100750000D03*
X230250000Y-100750000D03*
%TD*%
D19*
%TO.C,SW1*%
X233870000Y-77590000D03*
X233870000Y-81790000D03*
%TD*%
D20*
%TO.C,C10*%
X233660000Y-100600000D03*
X233660000Y-101560000D03*
%TD*%
D13*
%TO.C,C11*%
X233545000Y-90740000D03*
X233545000Y-89780000D03*
%TD*%
D21*
%TO.C,R6*%
X233835000Y-83090000D03*
X234855000Y-83090000D03*
%TD*%
D20*
%TO.C,C15*%
X227320000Y-102760000D03*
X227320000Y-103720000D03*
%TD*%
D21*
%TO.C,R7*%
X226030000Y-85810000D03*
X227050000Y-85810000D03*
%TD*%
D13*
%TO.C,C7*%
X232830000Y-87130000D03*
X232830000Y-86170000D03*
%TD*%
D22*
%TO.C,C1*%
X235680589Y-90704411D03*
X236359411Y-90025589D03*
%TD*%
D23*
%TO.C,Y1*%
X231070000Y-102220000D03*
X228870000Y-102220000D03*
X228870000Y-103920000D03*
X231070000Y-103920000D03*
%TD*%
D20*
%TO.C,C2*%
X232620000Y-100590000D03*
X232620000Y-101550000D03*
%TD*%
D24*
%TO.C,U4*%
X227620000Y-87765000D03*
D25*
X226195000Y-87015000D03*
X226195000Y-87515000D03*
X226195000Y-88015000D03*
X226195000Y-88515000D03*
X229045000Y-88515000D03*
X229045000Y-88015000D03*
X229045000Y-87515000D03*
X229045000Y-87015000D03*
%TD*%
D26*
%TO.C,C3*%
X225850000Y-96670000D03*
X224890000Y-96670000D03*
%TD*%
D27*
%TO.C,U2*%
X227420000Y-78427500D03*
X229320000Y-78427500D03*
X228370000Y-76552500D03*
%TD*%
D26*
%TO.C,C17*%
X228950000Y-85790000D03*
X227990000Y-85790000D03*
%TD*%
D17*
%TO.C,R4*%
X232545000Y-89420000D03*
X232545000Y-90440000D03*
%TD*%
D28*
%TO.C,C8*%
X235370000Y-92015000D03*
X236330000Y-92015000D03*
%TD*%
D13*
%TO.C,C12*%
X230845000Y-87865000D03*
X230845000Y-86905000D03*
%TD*%
D17*
%TO.C,R1*%
X229470000Y-74320000D03*
X229470000Y-75340000D03*
%TD*%
D28*
%TO.C,C9*%
X236360000Y-96420000D03*
X237320000Y-96420000D03*
%TD*%
D13*
%TO.C,C16*%
X232745000Y-103420000D03*
X232745000Y-102460000D03*
%TD*%
M02*
