%TF.GenerationSoftware,KiCad,Pcbnew,9.0.5*%
%TF.CreationDate,2025-11-18T21:13:20-05:00*%
%TF.ProjectId,JayBoard,4a617942-6f61-4726-942e-6b696361645f,rev?*%
%TF.SameCoordinates,Original*%
%TF.FileFunction,Legend,Bot*%
%TF.FilePolarity,Positive*%
%FSLAX46Y46*%
G04 Gerber Fmt 4.6, Leading zero omitted, Abs format (unit mm)*
G04 Created by KiCad (PCBNEW 9.0.5) date 2025-11-18 21:13:20*
%MOMM*%
%LPD*%
G01*
G04 APERTURE LIST*
%ADD10C,0.300000*%
%ADD11C,0.000000*%
G04 APERTURE END LIST*
D10*
X235138328Y-80012857D02*
X236209757Y-80012857D01*
X236209757Y-80012857D02*
X236424042Y-79941428D01*
X236424042Y-79941428D02*
X236566900Y-79798571D01*
X236566900Y-79798571D02*
X236638328Y-79584285D01*
X236638328Y-79584285D02*
X236638328Y-79441428D01*
X236638328Y-80941428D02*
X236566900Y-80798571D01*
X236566900Y-80798571D02*
X236495471Y-80727142D01*
X236495471Y-80727142D02*
X236352614Y-80655714D01*
X236352614Y-80655714D02*
X235924042Y-80655714D01*
X235924042Y-80655714D02*
X235781185Y-80727142D01*
X235781185Y-80727142D02*
X235709757Y-80798571D01*
X235709757Y-80798571D02*
X235638328Y-80941428D01*
X235638328Y-80941428D02*
X235638328Y-81155714D01*
X235638328Y-81155714D02*
X235709757Y-81298571D01*
X235709757Y-81298571D02*
X235781185Y-81370000D01*
X235781185Y-81370000D02*
X235924042Y-81441428D01*
X235924042Y-81441428D02*
X236352614Y-81441428D01*
X236352614Y-81441428D02*
X236495471Y-81370000D01*
X236495471Y-81370000D02*
X236566900Y-81298571D01*
X236566900Y-81298571D02*
X236638328Y-81155714D01*
X236638328Y-81155714D02*
X236638328Y-80941428D01*
X236566900Y-82012857D02*
X236638328Y-82155714D01*
X236638328Y-82155714D02*
X236638328Y-82441428D01*
X236638328Y-82441428D02*
X236566900Y-82584285D01*
X236566900Y-82584285D02*
X236424042Y-82655714D01*
X236424042Y-82655714D02*
X236352614Y-82655714D01*
X236352614Y-82655714D02*
X236209757Y-82584285D01*
X236209757Y-82584285D02*
X236138328Y-82441428D01*
X236138328Y-82441428D02*
X236138328Y-82227143D01*
X236138328Y-82227143D02*
X236066900Y-82084285D01*
X236066900Y-82084285D02*
X235924042Y-82012857D01*
X235924042Y-82012857D02*
X235852614Y-82012857D01*
X235852614Y-82012857D02*
X235709757Y-82084285D01*
X235709757Y-82084285D02*
X235638328Y-82227143D01*
X235638328Y-82227143D02*
X235638328Y-82441428D01*
X235638328Y-82441428D02*
X235709757Y-82584285D01*
X236638328Y-83298571D02*
X235138328Y-83298571D01*
X236638328Y-83941429D02*
X235852614Y-83941429D01*
X235852614Y-83941429D02*
X235709757Y-83870000D01*
X235709757Y-83870000D02*
X235638328Y-83727143D01*
X235638328Y-83727143D02*
X235638328Y-83512857D01*
X235638328Y-83512857D02*
X235709757Y-83370000D01*
X235709757Y-83370000D02*
X235781185Y-83298571D01*
X236638328Y-84655714D02*
X235638328Y-84655714D01*
X235138328Y-84655714D02*
X235209757Y-84584286D01*
X235209757Y-84584286D02*
X235281185Y-84655714D01*
X235281185Y-84655714D02*
X235209757Y-84727143D01*
X235209757Y-84727143D02*
X235138328Y-84655714D01*
X235138328Y-84655714D02*
X235281185Y-84655714D01*
X236638328Y-86155715D02*
X236638328Y-85298572D01*
X236638328Y-85727143D02*
X235138328Y-85727143D01*
X235138328Y-85727143D02*
X235352614Y-85584286D01*
X235352614Y-85584286D02*
X235495471Y-85441429D01*
X235495471Y-85441429D02*
X235566900Y-85298572D01*
X236495471Y-86798571D02*
X236566900Y-86870000D01*
X236566900Y-86870000D02*
X236638328Y-86798571D01*
X236638328Y-86798571D02*
X236566900Y-86727143D01*
X236566900Y-86727143D02*
X236495471Y-86798571D01*
X236495471Y-86798571D02*
X236638328Y-86798571D01*
X236566900Y-88155715D02*
X236638328Y-88012857D01*
X236638328Y-88012857D02*
X236638328Y-87727143D01*
X236638328Y-87727143D02*
X236566900Y-87584286D01*
X236566900Y-87584286D02*
X236495471Y-87512857D01*
X236495471Y-87512857D02*
X236352614Y-87441429D01*
X236352614Y-87441429D02*
X235924042Y-87441429D01*
X235924042Y-87441429D02*
X235781185Y-87512857D01*
X235781185Y-87512857D02*
X235709757Y-87584286D01*
X235709757Y-87584286D02*
X235638328Y-87727143D01*
X235638328Y-87727143D02*
X235638328Y-88012857D01*
X235638328Y-88012857D02*
X235709757Y-88155715D01*
X236638328Y-89012857D02*
X236566900Y-88870000D01*
X236566900Y-88870000D02*
X236495471Y-88798571D01*
X236495471Y-88798571D02*
X236352614Y-88727143D01*
X236352614Y-88727143D02*
X235924042Y-88727143D01*
X235924042Y-88727143D02*
X235781185Y-88798571D01*
X235781185Y-88798571D02*
X235709757Y-88870000D01*
X235709757Y-88870000D02*
X235638328Y-89012857D01*
X235638328Y-89012857D02*
X235638328Y-89227143D01*
X235638328Y-89227143D02*
X235709757Y-89370000D01*
X235709757Y-89370000D02*
X235781185Y-89441429D01*
X235781185Y-89441429D02*
X235924042Y-89512857D01*
X235924042Y-89512857D02*
X236352614Y-89512857D01*
X236352614Y-89512857D02*
X236495471Y-89441429D01*
X236495471Y-89441429D02*
X236566900Y-89370000D01*
X236566900Y-89370000D02*
X236638328Y-89227143D01*
X236638328Y-89227143D02*
X236638328Y-89012857D01*
X236638328Y-90155714D02*
X235638328Y-90155714D01*
X235781185Y-90155714D02*
X235709757Y-90227143D01*
X235709757Y-90227143D02*
X235638328Y-90370000D01*
X235638328Y-90370000D02*
X235638328Y-90584286D01*
X235638328Y-90584286D02*
X235709757Y-90727143D01*
X235709757Y-90727143D02*
X235852614Y-90798572D01*
X235852614Y-90798572D02*
X236638328Y-90798572D01*
X235852614Y-90798572D02*
X235709757Y-90870000D01*
X235709757Y-90870000D02*
X235638328Y-91012857D01*
X235638328Y-91012857D02*
X235638328Y-91227143D01*
X235638328Y-91227143D02*
X235709757Y-91370000D01*
X235709757Y-91370000D02*
X235852614Y-91441429D01*
X235852614Y-91441429D02*
X236638328Y-91441429D01*
X235066900Y-93227143D02*
X236995471Y-91941429D01*
X235138328Y-94155715D02*
X236209757Y-94155715D01*
X236209757Y-94155715D02*
X236424042Y-94084286D01*
X236424042Y-94084286D02*
X236566900Y-93941429D01*
X236566900Y-93941429D02*
X236638328Y-93727143D01*
X236638328Y-93727143D02*
X236638328Y-93584286D01*
X236638328Y-95512858D02*
X235852614Y-95512858D01*
X235852614Y-95512858D02*
X235709757Y-95441429D01*
X235709757Y-95441429D02*
X235638328Y-95298572D01*
X235638328Y-95298572D02*
X235638328Y-95012858D01*
X235638328Y-95012858D02*
X235709757Y-94870000D01*
X236566900Y-95512858D02*
X236638328Y-95370000D01*
X236638328Y-95370000D02*
X236638328Y-95012858D01*
X236638328Y-95012858D02*
X236566900Y-94870000D01*
X236566900Y-94870000D02*
X236424042Y-94798572D01*
X236424042Y-94798572D02*
X236281185Y-94798572D01*
X236281185Y-94798572D02*
X236138328Y-94870000D01*
X236138328Y-94870000D02*
X236066900Y-95012858D01*
X236066900Y-95012858D02*
X236066900Y-95370000D01*
X236066900Y-95370000D02*
X235995471Y-95512858D01*
X235638328Y-96084286D02*
X236638328Y-96441429D01*
X235638328Y-96798572D02*
X236638328Y-96441429D01*
X236638328Y-96441429D02*
X236995471Y-96298572D01*
X236995471Y-96298572D02*
X237066900Y-96227143D01*
X237066900Y-96227143D02*
X237138328Y-96084286D01*
X235852614Y-97870000D02*
X235924042Y-98084286D01*
X235924042Y-98084286D02*
X235995471Y-98155715D01*
X235995471Y-98155715D02*
X236138328Y-98227143D01*
X236138328Y-98227143D02*
X236352614Y-98227143D01*
X236352614Y-98227143D02*
X236495471Y-98155715D01*
X236495471Y-98155715D02*
X236566900Y-98084286D01*
X236566900Y-98084286D02*
X236638328Y-97941429D01*
X236638328Y-97941429D02*
X236638328Y-97370000D01*
X236638328Y-97370000D02*
X235138328Y-97370000D01*
X235138328Y-97370000D02*
X235138328Y-97870000D01*
X235138328Y-97870000D02*
X235209757Y-98012858D01*
X235209757Y-98012858D02*
X235281185Y-98084286D01*
X235281185Y-98084286D02*
X235424042Y-98155715D01*
X235424042Y-98155715D02*
X235566900Y-98155715D01*
X235566900Y-98155715D02*
X235709757Y-98084286D01*
X235709757Y-98084286D02*
X235781185Y-98012858D01*
X235781185Y-98012858D02*
X235852614Y-97870000D01*
X235852614Y-97870000D02*
X235852614Y-97370000D01*
X236638328Y-99084286D02*
X236566900Y-98941429D01*
X236566900Y-98941429D02*
X236495471Y-98870000D01*
X236495471Y-98870000D02*
X236352614Y-98798572D01*
X236352614Y-98798572D02*
X235924042Y-98798572D01*
X235924042Y-98798572D02*
X235781185Y-98870000D01*
X235781185Y-98870000D02*
X235709757Y-98941429D01*
X235709757Y-98941429D02*
X235638328Y-99084286D01*
X235638328Y-99084286D02*
X235638328Y-99298572D01*
X235638328Y-99298572D02*
X235709757Y-99441429D01*
X235709757Y-99441429D02*
X235781185Y-99512858D01*
X235781185Y-99512858D02*
X235924042Y-99584286D01*
X235924042Y-99584286D02*
X236352614Y-99584286D01*
X236352614Y-99584286D02*
X236495471Y-99512858D01*
X236495471Y-99512858D02*
X236566900Y-99441429D01*
X236566900Y-99441429D02*
X236638328Y-99298572D01*
X236638328Y-99298572D02*
X236638328Y-99084286D01*
X236638328Y-100870001D02*
X235852614Y-100870001D01*
X235852614Y-100870001D02*
X235709757Y-100798572D01*
X235709757Y-100798572D02*
X235638328Y-100655715D01*
X235638328Y-100655715D02*
X235638328Y-100370001D01*
X235638328Y-100370001D02*
X235709757Y-100227143D01*
X236566900Y-100870001D02*
X236638328Y-100727143D01*
X236638328Y-100727143D02*
X236638328Y-100370001D01*
X236638328Y-100370001D02*
X236566900Y-100227143D01*
X236566900Y-100227143D02*
X236424042Y-100155715D01*
X236424042Y-100155715D02*
X236281185Y-100155715D01*
X236281185Y-100155715D02*
X236138328Y-100227143D01*
X236138328Y-100227143D02*
X236066900Y-100370001D01*
X236066900Y-100370001D02*
X236066900Y-100727143D01*
X236066900Y-100727143D02*
X235995471Y-100870001D01*
X236638328Y-101584286D02*
X235638328Y-101584286D01*
X235924042Y-101584286D02*
X235781185Y-101655715D01*
X235781185Y-101655715D02*
X235709757Y-101727144D01*
X235709757Y-101727144D02*
X235638328Y-101870001D01*
X235638328Y-101870001D02*
X235638328Y-102012858D01*
X236638328Y-103155715D02*
X235138328Y-103155715D01*
X236566900Y-103155715D02*
X236638328Y-103012857D01*
X236638328Y-103012857D02*
X236638328Y-102727143D01*
X236638328Y-102727143D02*
X236566900Y-102584286D01*
X236566900Y-102584286D02*
X236495471Y-102512857D01*
X236495471Y-102512857D02*
X236352614Y-102441429D01*
X236352614Y-102441429D02*
X235924042Y-102441429D01*
X235924042Y-102441429D02*
X235781185Y-102512857D01*
X235781185Y-102512857D02*
X235709757Y-102584286D01*
X235709757Y-102584286D02*
X235638328Y-102727143D01*
X235638328Y-102727143D02*
X235638328Y-103012857D01*
X235638328Y-103012857D02*
X235709757Y-103155715D01*
X225095828Y-84151428D02*
X226167257Y-84151428D01*
X226167257Y-84151428D02*
X226381542Y-84079999D01*
X226381542Y-84079999D02*
X226524400Y-83937142D01*
X226524400Y-83937142D02*
X226595828Y-83722856D01*
X226595828Y-83722856D02*
X226595828Y-83579999D01*
X226595828Y-85508571D02*
X225810114Y-85508571D01*
X225810114Y-85508571D02*
X225667257Y-85437142D01*
X225667257Y-85437142D02*
X225595828Y-85294285D01*
X225595828Y-85294285D02*
X225595828Y-85008571D01*
X225595828Y-85008571D02*
X225667257Y-84865713D01*
X226524400Y-85508571D02*
X226595828Y-85365713D01*
X226595828Y-85365713D02*
X226595828Y-85008571D01*
X226595828Y-85008571D02*
X226524400Y-84865713D01*
X226524400Y-84865713D02*
X226381542Y-84794285D01*
X226381542Y-84794285D02*
X226238685Y-84794285D01*
X226238685Y-84794285D02*
X226095828Y-84865713D01*
X226095828Y-84865713D02*
X226024400Y-85008571D01*
X226024400Y-85008571D02*
X226024400Y-85365713D01*
X226024400Y-85365713D02*
X225952971Y-85508571D01*
X225595828Y-86079999D02*
X226595828Y-86437142D01*
X225595828Y-86794285D02*
X226595828Y-86437142D01*
X226595828Y-86437142D02*
X226952971Y-86294285D01*
X226952971Y-86294285D02*
X227024400Y-86222856D01*
X227024400Y-86222856D02*
X227095828Y-86079999D01*
X225595828Y-87151428D02*
X225595828Y-87722856D01*
X225095828Y-87365713D02*
X226381542Y-87365713D01*
X226381542Y-87365713D02*
X226524400Y-87437142D01*
X226524400Y-87437142D02*
X226595828Y-87579999D01*
X226595828Y-87579999D02*
X226595828Y-87722856D01*
X226595828Y-88222856D02*
X225595828Y-88222856D01*
X225095828Y-88222856D02*
X225167257Y-88151428D01*
X225167257Y-88151428D02*
X225238685Y-88222856D01*
X225238685Y-88222856D02*
X225167257Y-88294285D01*
X225167257Y-88294285D02*
X225095828Y-88222856D01*
X225095828Y-88222856D02*
X225238685Y-88222856D01*
X226595828Y-88937142D02*
X225595828Y-88937142D01*
X225881542Y-88937142D02*
X225738685Y-89008571D01*
X225738685Y-89008571D02*
X225667257Y-89080000D01*
X225667257Y-89080000D02*
X225595828Y-89222857D01*
X225595828Y-89222857D02*
X225595828Y-89365714D01*
X225595828Y-89651428D02*
X225595828Y-90222856D01*
X225095828Y-89865713D02*
X226381542Y-89865713D01*
X226381542Y-89865713D02*
X226524400Y-89937142D01*
X226524400Y-89937142D02*
X226595828Y-90079999D01*
X226595828Y-90079999D02*
X226595828Y-90222856D01*
X225095828Y-92294285D02*
X226167257Y-92294285D01*
X226167257Y-92294285D02*
X226381542Y-92222856D01*
X226381542Y-92222856D02*
X226524400Y-92079999D01*
X226524400Y-92079999D02*
X226595828Y-91865713D01*
X226595828Y-91865713D02*
X226595828Y-91722856D01*
X226595828Y-93222856D02*
X226524400Y-93079999D01*
X226524400Y-93079999D02*
X226452971Y-93008570D01*
X226452971Y-93008570D02*
X226310114Y-92937142D01*
X226310114Y-92937142D02*
X225881542Y-92937142D01*
X225881542Y-92937142D02*
X225738685Y-93008570D01*
X225738685Y-93008570D02*
X225667257Y-93079999D01*
X225667257Y-93079999D02*
X225595828Y-93222856D01*
X225595828Y-93222856D02*
X225595828Y-93437142D01*
X225595828Y-93437142D02*
X225667257Y-93579999D01*
X225667257Y-93579999D02*
X225738685Y-93651428D01*
X225738685Y-93651428D02*
X225881542Y-93722856D01*
X225881542Y-93722856D02*
X226310114Y-93722856D01*
X226310114Y-93722856D02*
X226452971Y-93651428D01*
X226452971Y-93651428D02*
X226524400Y-93579999D01*
X226524400Y-93579999D02*
X226595828Y-93437142D01*
X226595828Y-93437142D02*
X226595828Y-93222856D01*
X226524400Y-94294285D02*
X226595828Y-94437142D01*
X226595828Y-94437142D02*
X226595828Y-94722856D01*
X226595828Y-94722856D02*
X226524400Y-94865713D01*
X226524400Y-94865713D02*
X226381542Y-94937142D01*
X226381542Y-94937142D02*
X226310114Y-94937142D01*
X226310114Y-94937142D02*
X226167257Y-94865713D01*
X226167257Y-94865713D02*
X226095828Y-94722856D01*
X226095828Y-94722856D02*
X226095828Y-94508571D01*
X226095828Y-94508571D02*
X226024400Y-94365713D01*
X226024400Y-94365713D02*
X225881542Y-94294285D01*
X225881542Y-94294285D02*
X225810114Y-94294285D01*
X225810114Y-94294285D02*
X225667257Y-94365713D01*
X225667257Y-94365713D02*
X225595828Y-94508571D01*
X225595828Y-94508571D02*
X225595828Y-94722856D01*
X225595828Y-94722856D02*
X225667257Y-94865713D01*
X226595828Y-95579999D02*
X225095828Y-95579999D01*
X226595828Y-96222857D02*
X225810114Y-96222857D01*
X225810114Y-96222857D02*
X225667257Y-96151428D01*
X225667257Y-96151428D02*
X225595828Y-96008571D01*
X225595828Y-96008571D02*
X225595828Y-95794285D01*
X225595828Y-95794285D02*
X225667257Y-95651428D01*
X225667257Y-95651428D02*
X225738685Y-95579999D01*
X226595828Y-96937142D02*
X225595828Y-96937142D01*
X225095828Y-96937142D02*
X225167257Y-96865714D01*
X225167257Y-96865714D02*
X225238685Y-96937142D01*
X225238685Y-96937142D02*
X225167257Y-97008571D01*
X225167257Y-97008571D02*
X225095828Y-96937142D01*
X225095828Y-96937142D02*
X225238685Y-96937142D01*
D11*
%TO.C,G\u002A\u002A\u002A*%
G36*
X231809710Y-88440579D02*
G01*
X231809710Y-88552080D01*
X231943512Y-88552080D01*
X232077313Y-88552080D01*
X232077313Y-88685882D01*
X232077313Y-88819684D01*
X231943512Y-88819684D01*
X231809710Y-88819684D01*
X231809710Y-88931185D01*
X231809710Y-89042686D01*
X231943512Y-89042686D01*
X232077313Y-89042686D01*
X232077313Y-89176488D01*
X232077313Y-89310289D01*
X232188815Y-89310289D01*
X232300316Y-89310289D01*
X232300316Y-89176488D01*
X232300316Y-89042686D01*
X232434118Y-89042686D01*
X232567919Y-89042686D01*
X232567919Y-89187638D01*
X232567919Y-89332590D01*
X232445268Y-89332590D01*
X232322616Y-89332590D01*
X232322616Y-89444091D01*
X232322616Y-89555592D01*
X232567919Y-89555592D01*
X232813222Y-89555592D01*
X232813222Y-89678244D01*
X232813222Y-89800895D01*
X232935874Y-89800895D01*
X233058525Y-89800895D01*
X233058525Y-89923547D01*
X233058525Y-90046198D01*
X233292678Y-90046198D01*
X233526830Y-90046198D01*
X233526830Y-89923547D01*
X233526830Y-89800895D01*
X233671782Y-89800895D01*
X233816734Y-89800895D01*
X233816734Y-89923547D01*
X233816734Y-90046198D01*
X233939385Y-90046198D01*
X234062037Y-90046198D01*
X234062037Y-90180000D01*
X234062037Y-90313801D01*
X233682932Y-90313801D01*
X233303828Y-90313801D01*
X233303828Y-90547954D01*
X233303828Y-90782107D01*
X233415329Y-90782107D01*
X233526830Y-90782107D01*
X233526830Y-90659455D01*
X233526830Y-90536804D01*
X233671782Y-90536804D01*
X233816734Y-90536804D01*
X233816734Y-90659455D01*
X233816734Y-90782107D01*
X233939385Y-90782107D01*
X234062037Y-90782107D01*
X234062037Y-90915908D01*
X234062037Y-91049710D01*
X233928235Y-91049710D01*
X233794434Y-91049710D01*
X233794434Y-90927059D01*
X233794434Y-90804407D01*
X233671782Y-90804407D01*
X233549131Y-90804407D01*
X233549131Y-90915908D01*
X233549131Y-91060860D01*
X233549131Y-91317313D01*
X233292678Y-91317313D01*
X233036225Y-91317313D01*
X233036225Y-91183512D01*
X233036225Y-91049710D01*
X232913573Y-91049710D01*
X232790922Y-91049710D01*
X232790922Y-90915908D01*
X232790922Y-90804407D01*
X233058525Y-90804407D01*
X233058525Y-90915908D01*
X233058525Y-91027410D01*
X233170026Y-91027410D01*
X233281528Y-91027410D01*
X233281528Y-90915908D01*
X233281528Y-90804407D01*
X233170026Y-90804407D01*
X233058525Y-90804407D01*
X232790922Y-90804407D01*
X232790922Y-90782107D01*
X232913573Y-90782107D01*
X233036225Y-90782107D01*
X233036225Y-90425303D01*
X233036225Y-90068498D01*
X232913573Y-90068498D01*
X232790922Y-90068498D01*
X232790922Y-89945847D01*
X232790922Y-89823195D01*
X232422967Y-89823195D01*
X232055013Y-89823195D01*
X232055013Y-89700544D01*
X232055013Y-89577893D01*
X231798560Y-89577893D01*
X231542107Y-89577893D01*
X231542107Y-89444091D01*
X231542107Y-89310289D01*
X231664758Y-89310289D01*
X231787410Y-89310289D01*
X231787410Y-89187638D01*
X231787410Y-89064987D01*
X231664758Y-89064987D01*
X231542107Y-89064987D01*
X231542107Y-88942335D01*
X231542107Y-88819684D01*
X231430606Y-88819684D01*
X231319104Y-88819684D01*
X231319104Y-88942335D01*
X231319104Y-89064987D01*
X231185303Y-89064987D01*
X231051501Y-89064987D01*
X231051501Y-88942335D01*
X231051501Y-88819684D01*
X230940000Y-88819684D01*
X230828499Y-88819684D01*
X230828499Y-88942335D01*
X230828499Y-89064987D01*
X230705847Y-89064987D01*
X230583196Y-89064987D01*
X230583196Y-89310289D01*
X230583196Y-89555592D01*
X230705847Y-89555592D01*
X230828499Y-89555592D01*
X230828499Y-89678244D01*
X230828499Y-89800895D01*
X230940000Y-89800895D01*
X231051501Y-89800895D01*
X231051501Y-89678244D01*
X231051501Y-89555592D01*
X231185303Y-89555592D01*
X231319104Y-89555592D01*
X231319104Y-89812045D01*
X231319104Y-89823195D01*
X231319104Y-90068498D01*
X231196453Y-90068498D01*
X231073802Y-90068498D01*
X231073802Y-90191150D01*
X231073802Y-90313801D01*
X230828499Y-90313801D01*
X230583196Y-90313801D01*
X230583196Y-90559104D01*
X230583196Y-90804407D01*
X230449394Y-90804407D01*
X230315593Y-90804407D01*
X230315593Y-90559104D01*
X230315593Y-90313801D01*
X229947638Y-90313801D01*
X229579684Y-90313801D01*
X229579684Y-90425303D01*
X229579684Y-90536804D01*
X229702335Y-90536804D01*
X229824987Y-90536804D01*
X229824987Y-90559104D01*
X229824987Y-90782107D01*
X229824987Y-91027410D01*
X229958788Y-91027410D01*
X230092590Y-91027410D01*
X230092590Y-91161211D01*
X230092590Y-91295013D01*
X230204091Y-91295013D01*
X230315593Y-91295013D01*
X230315593Y-91161211D01*
X230315593Y-91027410D01*
X230449394Y-91027410D01*
X230583196Y-91027410D01*
X230583196Y-91161211D01*
X230583196Y-91295013D01*
X230694697Y-91295013D01*
X230806198Y-91295013D01*
X230806198Y-91161211D01*
X230806198Y-91027410D01*
X230928850Y-91027410D01*
X231051501Y-91027410D01*
X231051501Y-90915908D01*
X231051501Y-90804407D01*
X230928850Y-90804407D01*
X230806198Y-90804407D01*
X230806198Y-90670605D01*
X230806198Y-90536804D01*
X230940000Y-90536804D01*
X231073802Y-90536804D01*
X231073802Y-90659455D01*
X231073802Y-90782107D01*
X231196453Y-90782107D01*
X231319104Y-90782107D01*
X231319104Y-90904758D01*
X231319104Y-91027410D01*
X231430606Y-91027410D01*
X231542107Y-91027410D01*
X231542107Y-90793257D01*
X231542107Y-90559104D01*
X231419456Y-90559104D01*
X231296804Y-90559104D01*
X231296804Y-90425303D01*
X231296804Y-90313801D01*
X231564407Y-90313801D01*
X231564407Y-90425303D01*
X231564407Y-90536804D01*
X231675909Y-90536804D01*
X231787410Y-90536804D01*
X232322616Y-90536804D01*
X232434118Y-90536804D01*
X232545619Y-90536804D01*
X232545619Y-90425303D01*
X232545619Y-90313801D01*
X232434118Y-90313801D01*
X232322616Y-90313801D01*
X232322616Y-90425303D01*
X232322616Y-90536804D01*
X231787410Y-90536804D01*
X231787410Y-90425303D01*
X231787410Y-90313801D01*
X231675909Y-90313801D01*
X231564407Y-90313801D01*
X231296804Y-90313801D01*
X231296804Y-90291501D01*
X231419456Y-90291501D01*
X231542107Y-90291501D01*
X231542107Y-90168850D01*
X231542107Y-90046198D01*
X231809710Y-90046198D01*
X232077313Y-90046198D01*
X232077313Y-90168850D01*
X232077313Y-90291501D01*
X232188815Y-90291501D01*
X232300316Y-90291501D01*
X232300316Y-90168850D01*
X232300316Y-90046198D01*
X232434118Y-90046198D01*
X232567919Y-90046198D01*
X232567919Y-90168850D01*
X232567919Y-90291501D01*
X232690571Y-90291501D01*
X232813222Y-90291501D01*
X232813222Y-90425303D01*
X232813222Y-90559104D01*
X232690571Y-90559104D01*
X232567919Y-90559104D01*
X232567919Y-90681756D01*
X232567919Y-90804407D01*
X232434118Y-90804407D01*
X232300316Y-90804407D01*
X232300316Y-90681756D01*
X232300316Y-90559104D01*
X232055013Y-90559104D01*
X231809710Y-90559104D01*
X231809710Y-90927059D01*
X231809710Y-91295013D01*
X231943512Y-91295013D01*
X232077313Y-91295013D01*
X232077313Y-91428814D01*
X232077313Y-91562616D01*
X231820860Y-91562616D01*
X231564407Y-91562616D01*
X231564407Y-91674117D01*
X231564407Y-91785619D01*
X231687059Y-91785619D01*
X231809710Y-91785619D01*
X231809710Y-92030922D01*
X231809710Y-92276224D01*
X231943512Y-92276224D01*
X232077313Y-92276224D01*
X232077313Y-92298525D01*
X232077313Y-92789131D01*
X232077313Y-93302037D01*
X231932362Y-93302037D01*
X231787410Y-93302037D01*
X231787410Y-93179385D01*
X231787410Y-93056734D01*
X231675909Y-93056734D01*
X231564407Y-93056734D01*
X231564407Y-93179385D01*
X231564407Y-93302037D01*
X231430606Y-93302037D01*
X231296804Y-93302037D01*
X231296804Y-93179385D01*
X231296804Y-93056734D01*
X231185303Y-93056734D01*
X231073802Y-93056734D01*
X231073802Y-93179385D01*
X231073802Y-93302037D01*
X230817348Y-93302037D01*
X230560895Y-93302037D01*
X230560895Y-92922932D01*
X230560895Y-92543828D01*
X230449394Y-92543828D01*
X230337893Y-92543828D01*
X230337893Y-92666479D01*
X230337893Y-92789131D01*
X230215241Y-92789131D01*
X230092590Y-92789131D01*
X230092590Y-92911782D01*
X230092590Y-93034433D01*
X230215241Y-93034433D01*
X230337893Y-93034433D01*
X230337893Y-93168235D01*
X230337893Y-93302037D01*
X230070290Y-93302037D01*
X229802687Y-93302037D01*
X229802687Y-93179385D01*
X229802687Y-93056734D01*
X229680035Y-93056734D01*
X229557384Y-93056734D01*
X229557384Y-92922932D01*
X229557384Y-92789131D01*
X229445882Y-92789131D01*
X229334381Y-92789131D01*
X229334381Y-92911782D01*
X229334381Y-92922932D01*
X229334381Y-93056734D01*
X229089078Y-93056734D01*
X228843775Y-93056734D01*
X228843775Y-93179385D01*
X228843775Y-93302037D01*
X228330869Y-93302037D01*
X227817963Y-93302037D01*
X227817963Y-93034433D01*
X227817963Y-92789131D01*
X228353169Y-92789131D01*
X228353169Y-92911782D01*
X228353169Y-93034433D01*
X228587322Y-93034433D01*
X228821475Y-93034433D01*
X228821475Y-92911782D01*
X228821475Y-92789131D01*
X228587322Y-92789131D01*
X228353169Y-92789131D01*
X227817963Y-92789131D01*
X227817963Y-92766830D01*
X227940615Y-92766830D01*
X228063266Y-92766830D01*
X228063266Y-92655329D01*
X228063266Y-92543828D01*
X228843775Y-92543828D01*
X228843775Y-92655329D01*
X228843775Y-92766830D01*
X228955276Y-92766830D01*
X229066778Y-92766830D01*
X229066778Y-92655329D01*
X229066778Y-92543828D01*
X228955276Y-92543828D01*
X228843775Y-92543828D01*
X228063266Y-92543828D01*
X227940615Y-92543828D01*
X227817963Y-92543828D01*
X227817963Y-92532677D01*
X229579684Y-92532677D01*
X229579684Y-92655329D01*
X229579684Y-92766830D01*
X229824987Y-92766830D01*
X230070290Y-92766830D01*
X230070290Y-92655329D01*
X230070290Y-92543828D01*
X229936488Y-92543828D01*
X229802687Y-92543828D01*
X229802687Y-92421176D01*
X229802687Y-92298525D01*
X230583196Y-92298525D01*
X230583196Y-92410026D01*
X230583196Y-92521527D01*
X230705847Y-92521527D01*
X230828499Y-92521527D01*
X230828499Y-92644179D01*
X230828499Y-92766830D01*
X231307954Y-92766830D01*
X231787410Y-92766830D01*
X231787410Y-92532677D01*
X231787410Y-92298525D01*
X231664758Y-92298525D01*
X231542107Y-92298525D01*
X231542107Y-92053222D01*
X231542107Y-91807919D01*
X231419456Y-91807919D01*
X231296804Y-91807919D01*
X231296804Y-91562616D01*
X231296804Y-91317313D01*
X231062651Y-91317313D01*
X230828499Y-91317313D01*
X230828499Y-91428814D01*
X230828499Y-91540316D01*
X230951150Y-91540316D01*
X231073802Y-91540316D01*
X231073802Y-91674117D01*
X231073802Y-91908270D01*
X231073802Y-92042072D01*
X231073802Y-92276224D01*
X231196453Y-92276224D01*
X231319104Y-92276224D01*
X231319104Y-92410026D01*
X231319104Y-92543828D01*
X231185303Y-92543828D01*
X231051501Y-92543828D01*
X231051501Y-92421176D01*
X231051501Y-92298525D01*
X230817348Y-92298525D01*
X230583196Y-92298525D01*
X229802687Y-92298525D01*
X229691185Y-92298525D01*
X229579684Y-92298525D01*
X229579684Y-92410026D01*
X229579684Y-92532677D01*
X227817963Y-92532677D01*
X227817963Y-92298525D01*
X228353169Y-92298525D01*
X228353169Y-92410026D01*
X228353169Y-92521527D01*
X228464671Y-92521527D01*
X228576172Y-92521527D01*
X228576172Y-92410026D01*
X228576172Y-92298525D01*
X228464671Y-92298525D01*
X228353169Y-92298525D01*
X227817963Y-92298525D01*
X227817963Y-92053222D01*
X228085566Y-92053222D01*
X228085566Y-92164723D01*
X228085566Y-92276224D01*
X228208218Y-92276224D01*
X228330869Y-92276224D01*
X228330869Y-92164723D01*
X228330869Y-92053222D01*
X228208218Y-92053222D01*
X228085566Y-92053222D01*
X227817963Y-92053222D01*
X227817963Y-92042072D01*
X227817963Y-91807919D01*
X228353169Y-91807919D01*
X228353169Y-91919420D01*
X228353169Y-92030922D01*
X228475821Y-92030922D01*
X228598472Y-92030922D01*
X228598472Y-92153573D01*
X228598472Y-92164723D01*
X228598472Y-92276224D01*
X228709974Y-92276224D01*
X228821475Y-92276224D01*
X228821475Y-92030922D01*
X229089078Y-92030922D01*
X229445882Y-92030922D01*
X229802687Y-92030922D01*
X229802687Y-91807919D01*
X230092590Y-91807919D01*
X230092590Y-91919420D01*
X230092590Y-92030922D01*
X230215241Y-92030922D01*
X230337893Y-92030922D01*
X230337893Y-92153573D01*
X230337893Y-92276224D01*
X230449394Y-92276224D01*
X230560895Y-92276224D01*
X230560895Y-92042072D01*
X230560895Y-91807919D01*
X230326743Y-91807919D01*
X230092590Y-91807919D01*
X229802687Y-91807919D01*
X229802687Y-91674117D01*
X229802687Y-91317313D01*
X229445882Y-91317313D01*
X229089078Y-91317313D01*
X229089078Y-91674117D01*
X229089078Y-91919420D01*
X229089078Y-92030922D01*
X228821475Y-92030922D01*
X228821475Y-91919420D01*
X228821475Y-91562616D01*
X228709974Y-91562616D01*
X228598472Y-91562616D01*
X228598472Y-91685267D01*
X228598472Y-91807919D01*
X228475821Y-91807919D01*
X228353169Y-91807919D01*
X227817963Y-91807919D01*
X227817963Y-91540316D01*
X228074416Y-91540316D01*
X228330869Y-91540316D01*
X228330869Y-91428814D01*
X228330869Y-91317313D01*
X228197068Y-91317313D01*
X228063266Y-91317313D01*
X228063266Y-91183512D01*
X228063266Y-91049710D01*
X227940615Y-91049710D01*
X227817963Y-91049710D01*
X227817963Y-90559104D01*
X228085566Y-90559104D01*
X228085566Y-90670605D01*
X228085566Y-90782107D01*
X228219368Y-90782107D01*
X228353169Y-90782107D01*
X228353169Y-91038560D01*
X228353169Y-91295013D01*
X228587322Y-91295013D01*
X228821475Y-91295013D01*
X228821475Y-91161211D01*
X228821475Y-91027410D01*
X229189429Y-91027410D01*
X229557384Y-91027410D01*
X229557384Y-90793257D01*
X229557384Y-90559104D01*
X229445882Y-90559104D01*
X229334381Y-90559104D01*
X229334381Y-90681756D01*
X229334381Y-90804407D01*
X228955276Y-90804407D01*
X228576172Y-90804407D01*
X228576172Y-90436453D01*
X228576172Y-90313801D01*
X228843775Y-90313801D01*
X228843775Y-90425303D01*
X228843775Y-90536804D01*
X228955276Y-90536804D01*
X229066778Y-90536804D01*
X229066778Y-90425303D01*
X229066778Y-90313801D01*
X228955276Y-90313801D01*
X228843775Y-90313801D01*
X228576172Y-90313801D01*
X228576172Y-90068498D01*
X229334381Y-90068498D01*
X229334381Y-90180000D01*
X229334381Y-90291501D01*
X229445882Y-90291501D01*
X229557384Y-90291501D01*
X229557384Y-90180000D01*
X229557384Y-90068498D01*
X229445882Y-90068498D01*
X229334381Y-90068498D01*
X228576172Y-90068498D01*
X228464671Y-90068498D01*
X228353169Y-90068498D01*
X228353169Y-90313801D01*
X228353169Y-90559104D01*
X228219368Y-90559104D01*
X228085566Y-90559104D01*
X227817963Y-90559104D01*
X227817963Y-90046198D01*
X227817963Y-89823195D01*
X228085566Y-89823195D01*
X228085566Y-89934697D01*
X228085566Y-90046198D01*
X228208218Y-90046198D01*
X228330869Y-90046198D01*
X228330869Y-89934697D01*
X228330869Y-89823195D01*
X228208218Y-89823195D01*
X228085566Y-89823195D01*
X227817963Y-89823195D01*
X227817963Y-89042686D01*
X227951765Y-89042686D01*
X228085566Y-89042686D01*
X228085566Y-89299139D01*
X228085566Y-89555592D01*
X228453521Y-89555592D01*
X228821475Y-89555592D01*
X228821475Y-89444091D01*
X228821475Y-89332590D01*
X228576172Y-89332590D01*
X228330869Y-89332590D01*
X228330869Y-89187638D01*
X228330869Y-89042686D01*
X228709974Y-89042686D01*
X229089078Y-89042686D01*
X229089078Y-89432941D01*
X229089078Y-89823195D01*
X228966427Y-89823195D01*
X228843775Y-89823195D01*
X228843775Y-89934697D01*
X228843775Y-90046198D01*
X229077928Y-90046198D01*
X229312081Y-90046198D01*
X229312081Y-89923547D01*
X229312081Y-89800895D01*
X229445882Y-89800895D01*
X229579684Y-89800895D01*
X229579684Y-89923547D01*
X229579684Y-90046198D01*
X229691185Y-90046198D01*
X229802687Y-90046198D01*
X229802687Y-89923547D01*
X229802687Y-89800895D01*
X229936488Y-89800895D01*
X230070290Y-89800895D01*
X230070290Y-89689394D01*
X230070290Y-89577893D01*
X230337893Y-89577893D01*
X230337893Y-89934697D01*
X230337893Y-90180000D01*
X230337893Y-90291501D01*
X230449394Y-90291501D01*
X230560895Y-90291501D01*
X230560895Y-90168850D01*
X230560895Y-90046198D01*
X230683547Y-90046198D01*
X230806198Y-90046198D01*
X230806198Y-89934697D01*
X230806198Y-89823195D01*
X230683547Y-89823195D01*
X230560895Y-89823195D01*
X230560895Y-89700544D01*
X230560895Y-89577893D01*
X230449394Y-89577893D01*
X230337893Y-89577893D01*
X230070290Y-89577893D01*
X229936488Y-89577893D01*
X229802687Y-89577893D01*
X229802687Y-89455241D01*
X229802687Y-89332590D01*
X229680035Y-89332590D01*
X229557384Y-89332590D01*
X229557384Y-89187638D01*
X229557384Y-89064987D01*
X230092590Y-89064987D01*
X230092590Y-89310289D01*
X230092590Y-89555592D01*
X230204091Y-89555592D01*
X230315593Y-89555592D01*
X230315593Y-89310289D01*
X230315593Y-89064987D01*
X230204091Y-89064987D01*
X230092590Y-89064987D01*
X229557384Y-89064987D01*
X229557384Y-89042686D01*
X229680035Y-89042686D01*
X229802687Y-89042686D01*
X229802687Y-88674732D01*
X229802687Y-88329078D01*
X230092590Y-88329078D01*
X230092590Y-88563231D01*
X230092590Y-88797383D01*
X230204091Y-88797383D01*
X230315593Y-88797383D01*
X230315593Y-88674732D01*
X230315593Y-88552080D01*
X230449394Y-88552080D01*
X230583196Y-88552080D01*
X230583196Y-88674732D01*
X230583196Y-88797383D01*
X230694697Y-88797383D01*
X230806198Y-88797383D01*
X230806198Y-88674732D01*
X230806198Y-88552080D01*
X230940000Y-88552080D01*
X231073802Y-88552080D01*
X231073802Y-88674732D01*
X231073802Y-88797383D01*
X231185303Y-88797383D01*
X231296804Y-88797383D01*
X231296804Y-88674732D01*
X231296804Y-88574381D01*
X231564407Y-88574381D01*
X231564407Y-88685882D01*
X231564407Y-88797383D01*
X231675909Y-88797383D01*
X231787410Y-88797383D01*
X231787410Y-88685882D01*
X231787410Y-88574381D01*
X231675909Y-88574381D01*
X231564407Y-88574381D01*
X231296804Y-88574381D01*
X231296804Y-88552080D01*
X231419456Y-88552080D01*
X231542107Y-88552080D01*
X231542107Y-88440579D01*
X231542107Y-88329078D01*
X231296804Y-88329078D01*
X231051501Y-88329078D01*
X231051501Y-88206426D01*
X231051501Y-88083775D01*
X230928850Y-88083775D01*
X230806198Y-88083775D01*
X230806198Y-87838472D01*
X230806198Y-87593169D01*
X230683547Y-87593169D01*
X230560895Y-87593169D01*
X230560895Y-87459368D01*
X230560895Y-87325566D01*
X230449394Y-87325566D01*
X230337893Y-87325566D01*
X230337893Y-87570869D01*
X230337893Y-87816172D01*
X230460544Y-87816172D01*
X230583196Y-87816172D01*
X230583196Y-87949973D01*
X230583196Y-88083775D01*
X230460544Y-88083775D01*
X230337893Y-88083775D01*
X230337893Y-88206426D01*
X230337893Y-88329078D01*
X230215241Y-88329078D01*
X230092590Y-88329078D01*
X229802687Y-88329078D01*
X229802687Y-88306778D01*
X229936488Y-88306778D01*
X230070290Y-88306778D01*
X230070290Y-88195276D01*
X230070290Y-88083775D01*
X229936488Y-88083775D01*
X229802687Y-88083775D01*
X229802687Y-87949973D01*
X229802687Y-87816172D01*
X229936488Y-87816172D01*
X230070290Y-87816172D01*
X230070290Y-87570869D01*
X230070290Y-87325566D01*
X229936488Y-87325566D01*
X229802687Y-87325566D01*
X229802687Y-87191764D01*
X229802687Y-87057963D01*
X229947638Y-87057963D01*
X230092590Y-87057963D01*
X230092590Y-87180614D01*
X230092590Y-87303266D01*
X230204091Y-87303266D01*
X230315593Y-87303266D01*
X230315593Y-87180614D01*
X230315593Y-87057963D01*
X230449394Y-87057963D01*
X230583196Y-87057963D01*
X230583196Y-87180614D01*
X230583196Y-87303266D01*
X230705847Y-87303266D01*
X230828499Y-87303266D01*
X230828499Y-87437067D01*
X230828499Y-87570869D01*
X231073802Y-87570869D01*
X231319104Y-87570869D01*
X231319104Y-87816172D01*
X231319104Y-88061475D01*
X231430606Y-88061475D01*
X231542107Y-88061475D01*
X231542107Y-87938823D01*
X231542107Y-87816172D01*
X231664758Y-87816172D01*
X231787410Y-87816172D01*
X231787410Y-87693520D01*
X231787410Y-87570869D01*
X231932362Y-87570869D01*
X232077313Y-87570869D01*
X232077313Y-87949973D01*
X232077313Y-88329078D01*
X231943512Y-88329078D01*
X231809710Y-88329078D01*
X231809710Y-88440579D01*
G37*
G36*
X234039737Y-92410026D02*
G01*
X234039737Y-93279736D01*
X233170026Y-93279736D01*
X232300316Y-93279736D01*
X232300316Y-93034433D01*
X232544913Y-93034433D01*
X233169674Y-93034433D01*
X233794434Y-93034433D01*
X233794434Y-92409673D01*
X233794434Y-91784913D01*
X233175601Y-91790841D01*
X232556769Y-91796769D01*
X232550841Y-92415601D01*
X232544913Y-93034433D01*
X232300316Y-93034433D01*
X232300316Y-92410026D01*
X232300316Y-91540316D01*
X233170026Y-91540316D01*
X234039737Y-91540316D01*
X234039737Y-92409673D01*
X234039737Y-92410026D01*
G37*
G36*
X232567919Y-91172361D02*
G01*
X232567919Y-91317313D01*
X232434118Y-91317313D01*
X232300316Y-91317313D01*
X232300316Y-91172361D01*
X232300316Y-91027410D01*
X232434118Y-91027410D01*
X232567919Y-91027410D01*
X232567919Y-91172361D01*
G37*
G36*
X234062037Y-89310289D02*
G01*
X234062037Y-89577893D01*
X233928235Y-89577893D01*
X233794434Y-89577893D01*
X233794434Y-89455241D01*
X233794434Y-89332590D01*
X233671782Y-89332590D01*
X233549131Y-89332590D01*
X233549131Y-89455241D01*
X233549131Y-89577893D01*
X233415329Y-89577893D01*
X233281528Y-89577893D01*
X233281528Y-89455241D01*
X233281528Y-89332590D01*
X233158876Y-89332590D01*
X233036225Y-89332590D01*
X233036225Y-89187638D01*
X233036225Y-89042686D01*
X233549131Y-89042686D01*
X234062037Y-89042686D01*
X234062037Y-89310289D01*
G37*
G36*
X234039737Y-88819684D02*
G01*
X233170026Y-88819684D01*
X232300316Y-88819684D01*
X232300316Y-87949973D01*
X232300316Y-87325566D01*
X232544913Y-87325566D01*
X232550841Y-87944398D01*
X232556769Y-88563231D01*
X233175601Y-88569158D01*
X233794434Y-88575086D01*
X233794434Y-87950326D01*
X233794434Y-87325566D01*
X233169674Y-87325566D01*
X232544913Y-87325566D01*
X232300316Y-87325566D01*
X232300316Y-87080263D01*
X233170026Y-87080263D01*
X234039737Y-87080263D01*
X234039737Y-87949973D01*
X234039737Y-87950326D01*
X234039737Y-88819684D01*
G37*
G36*
X229579671Y-87970287D02*
G01*
X229579165Y-88159157D01*
X229577979Y-88333034D01*
X229576199Y-88486984D01*
X229573908Y-88616072D01*
X229571192Y-88715363D01*
X229568133Y-88779923D01*
X229564817Y-88804817D01*
X229563486Y-88805428D01*
X229531093Y-88808704D01*
X229459923Y-88811708D01*
X229354909Y-88814354D01*
X229220986Y-88816559D01*
X229063088Y-88818239D01*
X228886150Y-88819308D01*
X228695107Y-88819684D01*
X227840263Y-88819684D01*
X227840263Y-87949973D01*
X227840263Y-87325566D01*
X228085566Y-87325566D01*
X228085566Y-87949973D01*
X228085566Y-88574381D01*
X228695107Y-88574381D01*
X228704737Y-88574379D01*
X228864638Y-88573796D01*
X229009427Y-88572268D01*
X229133207Y-88569936D01*
X229230080Y-88566939D01*
X229294148Y-88563418D01*
X229319514Y-88559514D01*
X229319749Y-88559204D01*
X229323635Y-88531428D01*
X229327129Y-88465292D01*
X229330091Y-88366694D01*
X229332381Y-88241533D01*
X229333858Y-88095704D01*
X229334381Y-87935107D01*
X229334381Y-87325566D01*
X228709974Y-87325566D01*
X228085566Y-87325566D01*
X227840263Y-87325566D01*
X227840263Y-87080263D01*
X228709974Y-87080263D01*
X229579684Y-87080263D01*
X229579684Y-87935107D01*
X229579671Y-87970287D01*
G37*
G36*
X232077313Y-87191764D02*
G01*
X232077313Y-87325566D01*
X231809710Y-87325566D01*
X231542107Y-87325566D01*
X231542107Y-87191764D01*
X231542107Y-87057963D01*
X231809710Y-87057963D01*
X232077313Y-87057963D01*
X232077313Y-87191764D01*
G37*
G36*
X229579684Y-91674117D02*
G01*
X229579684Y-91807919D01*
X229445882Y-91807919D01*
X229312081Y-91807919D01*
X229312081Y-91674117D01*
X229312081Y-91540316D01*
X229445882Y-91540316D01*
X229579684Y-91540316D01*
X229579684Y-91674117D01*
G37*
G36*
X233549131Y-92421176D02*
G01*
X233549131Y-92789131D01*
X233181176Y-92789131D01*
X232813222Y-92789131D01*
X232813222Y-92421176D01*
X232813222Y-92053222D01*
X233181176Y-92053222D01*
X233549131Y-92053222D01*
X233549131Y-92421176D01*
G37*
G36*
X233549131Y-87938823D02*
G01*
X233549131Y-88306778D01*
X233181176Y-88306778D01*
X232813222Y-88306778D01*
X232813222Y-87938823D01*
X232813222Y-87570869D01*
X233181176Y-87570869D01*
X233549131Y-87570869D01*
X233549131Y-87938823D01*
G37*
G36*
X229066778Y-87938823D02*
G01*
X229066778Y-88306778D01*
X228698823Y-88306778D01*
X228330869Y-88306778D01*
X228330869Y-87938823D01*
X228330869Y-87570869D01*
X228698823Y-87570869D01*
X229066778Y-87570869D01*
X229066778Y-87938823D01*
G37*
%TD*%
M02*
