%TF.GenerationSoftware,KiCad,Pcbnew,9.0.5*%
%TF.CreationDate,2025-11-18T21:13:20-05:00*%
%TF.ProjectId,JayBoard,4a617942-6f61-4726-942e-6b696361645f,rev?*%
%TF.SameCoordinates,Original*%
%TF.FileFunction,Legend,Top*%
%TF.FilePolarity,Positive*%
%FSLAX46Y46*%
G04 Gerber Fmt 4.6, Leading zero omitted, Abs format (unit mm)*
G04 Created by KiCad (PCBNEW 9.0.5) date 2025-11-18 21:13:20*
%MOMM*%
%LPD*%
G01*
G04 APERTURE LIST*
%ADD10C,0.000000*%
%ADD11C,0.120000*%
G04 APERTURE END LIST*
D10*
%TO.C,G\u002A\u002A\u002A*%
G36*
X229120602Y-106644016D02*
G01*
X229290280Y-106665331D01*
X229470375Y-106702394D01*
X229660847Y-106755201D01*
X229828036Y-106811436D01*
X229875033Y-106829287D01*
X229934418Y-106853161D01*
X230001355Y-106881037D01*
X230071006Y-106910894D01*
X230138533Y-106940713D01*
X230151055Y-106946357D01*
X230302890Y-107011928D01*
X230443812Y-107065769D01*
X230577257Y-107108621D01*
X230706661Y-107141224D01*
X230835461Y-107164319D01*
X230967094Y-107178646D01*
X231104998Y-107184946D01*
X231252607Y-107183961D01*
X231253537Y-107183934D01*
X231362338Y-107179443D01*
X231458970Y-107172165D01*
X231550172Y-107161282D01*
X231642682Y-107145975D01*
X231743241Y-107125427D01*
X231752814Y-107123315D01*
X231916372Y-107081582D01*
X232084425Y-107028501D01*
X232251437Y-106966172D01*
X232411869Y-106896696D01*
X232560187Y-106822174D01*
X232590097Y-106805617D01*
X232626128Y-106786034D01*
X232655793Y-106771280D01*
X232675423Y-106763095D01*
X232681325Y-106762288D01*
X232678590Y-106771806D01*
X232668143Y-106795785D01*
X232651121Y-106831856D01*
X232628658Y-106877651D01*
X232601891Y-106930802D01*
X232581203Y-106971110D01*
X232552126Y-107028044D01*
X232526621Y-107079337D01*
X232505816Y-107122611D01*
X232490835Y-107155486D01*
X232482806Y-107175584D01*
X232481923Y-107180775D01*
X232492735Y-107182464D01*
X232519859Y-107183969D01*
X232560595Y-107185222D01*
X232612242Y-107186152D01*
X232672101Y-107186690D01*
X232714503Y-107186796D01*
X232777859Y-107186965D01*
X232834383Y-107187439D01*
X232881469Y-107188169D01*
X232916509Y-107189108D01*
X232936897Y-107190207D01*
X232941062Y-107191011D01*
X232933977Y-107201055D01*
X232913992Y-107221366D01*
X232883011Y-107250282D01*
X232842941Y-107286142D01*
X232795686Y-107327285D01*
X232743150Y-107372050D01*
X232687240Y-107418776D01*
X232629861Y-107465801D01*
X232579835Y-107505976D01*
X232420029Y-107628152D01*
X232259711Y-107741373D01*
X232100586Y-107844668D01*
X231944361Y-107937067D01*
X231792742Y-108017598D01*
X231647435Y-108085290D01*
X231510145Y-108139171D01*
X231413814Y-108169835D01*
X231345117Y-108188209D01*
X231283475Y-108201962D01*
X231223969Y-108211701D01*
X231161678Y-108218031D01*
X231091682Y-108221558D01*
X231009060Y-108222888D01*
X230982296Y-108222949D01*
X230858700Y-108221565D01*
X230740145Y-108217159D01*
X230624487Y-108209345D01*
X230509576Y-108197739D01*
X230393265Y-108181958D01*
X230273407Y-108161616D01*
X230147854Y-108136330D01*
X230014459Y-108105714D01*
X229871075Y-108069386D01*
X229715553Y-108026960D01*
X229545747Y-107978053D01*
X229442859Y-107947463D01*
X229351074Y-107920545D01*
X229252995Y-107892907D01*
X229163280Y-107868489D01*
X230091069Y-107868489D01*
X230099917Y-107894110D01*
X230117032Y-107905265D01*
X230140265Y-107903398D01*
X230167470Y-107889949D01*
X230196499Y-107866362D01*
X230225205Y-107834077D01*
X230251442Y-107794536D01*
X230273061Y-107749182D01*
X230274554Y-107745273D01*
X230287279Y-107716804D01*
X230299798Y-107703097D01*
X230312369Y-107700119D01*
X230321201Y-107701483D01*
X230328170Y-107707560D01*
X230334338Y-107721329D01*
X230340766Y-107745769D01*
X230348516Y-107783860D01*
X230355426Y-107820947D01*
X230366008Y-107875150D01*
X230375283Y-107913758D01*
X230384260Y-107940051D01*
X230393949Y-107957303D01*
X230399350Y-107963537D01*
X230428065Y-107981803D01*
X230457638Y-107982606D01*
X230484121Y-107965866D01*
X230484668Y-107965269D01*
X230497225Y-107938571D01*
X230500901Y-107898695D01*
X230496218Y-107848985D01*
X230483699Y-107792788D01*
X230465300Y-107737740D01*
X230831338Y-107737740D01*
X230839116Y-107809300D01*
X230854532Y-107873526D01*
X230871126Y-107914004D01*
X230903806Y-107958179D01*
X230946736Y-107988463D01*
X230996303Y-108003432D01*
X231048889Y-108001665D01*
X231074893Y-107994172D01*
X231110514Y-107974385D01*
X231134954Y-107948059D01*
X231144417Y-107919336D01*
X231144430Y-107918264D01*
X231140601Y-107893751D01*
X231127275Y-107881029D01*
X231101700Y-107878792D01*
X231071125Y-107883561D01*
X231036625Y-107888895D01*
X231012959Y-107887242D01*
X230998666Y-107881578D01*
X230971762Y-107857615D01*
X230949340Y-107819494D01*
X230932787Y-107771816D01*
X230923491Y-107719180D01*
X230922839Y-107666188D01*
X230926157Y-107641163D01*
X230940320Y-107594423D01*
X230961523Y-107564514D01*
X230989124Y-107551895D01*
X231022485Y-107557029D01*
X231034871Y-107562818D01*
X231065781Y-107573577D01*
X231086885Y-107569405D01*
X231096485Y-107552564D01*
X231092880Y-107525322D01*
X231081353Y-107500872D01*
X231070562Y-107488092D01*
X231192572Y-107488092D01*
X231193923Y-107526004D01*
X231198760Y-107577216D01*
X231207091Y-107644073D01*
X231210214Y-107667108D01*
X231217563Y-107721511D01*
X231224566Y-107775021D01*
X231230491Y-107821924D01*
X231234604Y-107856509D01*
X231234992Y-107860025D01*
X231239209Y-107890195D01*
X231245985Y-107911985D01*
X231257756Y-107925960D01*
X231276960Y-107932683D01*
X231306031Y-107932717D01*
X231347407Y-107926625D01*
X231403525Y-107914970D01*
X231438545Y-107907080D01*
X231494577Y-107892052D01*
X231533005Y-107876212D01*
X231555238Y-107858779D01*
X231562684Y-107838970D01*
X231562694Y-107838137D01*
X231554107Y-107824442D01*
X231529948Y-107817290D01*
X231492619Y-107817029D01*
X231453248Y-107822313D01*
X231407333Y-107829355D01*
X231368549Y-107832618D01*
X231340324Y-107832028D01*
X231326088Y-107827511D01*
X231325044Y-107825077D01*
X231323856Y-107795767D01*
X231320655Y-107753445D01*
X231315984Y-107703182D01*
X231310386Y-107650054D01*
X231304406Y-107599133D01*
X231298585Y-107555494D01*
X231293469Y-107524210D01*
X231292146Y-107517961D01*
X231279040Y-107473129D01*
X231263770Y-107439187D01*
X231248721Y-107420143D01*
X231496152Y-107420143D01*
X231499320Y-107445913D01*
X231507882Y-107484788D01*
X231520424Y-107532152D01*
X231535532Y-107583390D01*
X231551792Y-107633886D01*
X231567789Y-107679023D01*
X231582111Y-107714186D01*
X231591924Y-107732804D01*
X231626027Y-107768248D01*
X231669820Y-107792439D01*
X231718043Y-107803740D01*
X231765441Y-107800515D01*
X231786400Y-107793306D01*
X231811502Y-107772680D01*
X231832967Y-107737712D01*
X231848469Y-107693027D01*
X231854618Y-107657590D01*
X231855252Y-107624157D01*
X231852283Y-107579213D01*
X231846246Y-107529804D01*
X231843692Y-107513837D01*
X231827964Y-107438079D01*
X231809812Y-107381092D01*
X231789247Y-107342899D01*
X231766280Y-107323526D01*
X231746337Y-107321564D01*
X231727090Y-107334150D01*
X231718418Y-107362264D01*
X231720365Y-107405603D01*
X231728133Y-107445094D01*
X231738212Y-107494893D01*
X231745648Y-107547646D01*
X231750158Y-107598939D01*
X231751461Y-107644354D01*
X231749277Y-107679478D01*
X231744265Y-107698331D01*
X231725924Y-107714855D01*
X231700153Y-107718716D01*
X231679511Y-107711523D01*
X231668259Y-107699019D01*
X231656090Y-107674360D01*
X231642396Y-107635858D01*
X231626570Y-107581829D01*
X231610056Y-107518749D01*
X231597570Y-107472507D01*
X231585107Y-107431975D01*
X231574048Y-107401310D01*
X231565775Y-107384667D01*
X231565257Y-107384045D01*
X231542383Y-107368555D01*
X231520686Y-107369862D01*
X231504036Y-107385946D01*
X231496304Y-107414784D01*
X231496152Y-107420143D01*
X231248721Y-107420143D01*
X231247917Y-107419126D01*
X231237643Y-107414940D01*
X231222666Y-107420811D01*
X231209344Y-107430672D01*
X231200291Y-107442773D01*
X231194697Y-107461131D01*
X231192572Y-107488092D01*
X231070562Y-107488092D01*
X231052471Y-107466668D01*
X231017872Y-107448504D01*
X230980181Y-107445337D01*
X230942024Y-107456126D01*
X230906028Y-107479826D01*
X230874816Y-107515395D01*
X230851016Y-107561790D01*
X230840952Y-107596369D01*
X230831762Y-107664783D01*
X230831338Y-107737740D01*
X230465300Y-107737740D01*
X230463865Y-107733447D01*
X230440157Y-107680050D01*
X230422935Y-107645721D01*
X230451801Y-107618261D01*
X230484607Y-107583714D01*
X230515100Y-107545676D01*
X230540466Y-107508304D01*
X230557891Y-107475753D01*
X230564561Y-107452179D01*
X230564565Y-107451723D01*
X230559230Y-107426078D01*
X230543322Y-107416084D01*
X230516989Y-107421693D01*
X230480378Y-107442854D01*
X230433634Y-107479517D01*
X230403523Y-107506399D01*
X230375225Y-107531491D01*
X230353782Y-107548425D01*
X230341662Y-107555394D01*
X230340255Y-107552776D01*
X230343946Y-107535414D01*
X230347790Y-107504211D01*
X230351218Y-107464327D01*
X230352830Y-107438545D01*
X230354935Y-107394997D01*
X230355136Y-107365805D01*
X230352672Y-107346346D01*
X230346779Y-107331998D01*
X230336698Y-107318138D01*
X230332076Y-107312591D01*
X230311420Y-107294024D01*
X231887652Y-107294024D01*
X231889345Y-107307321D01*
X231895697Y-107335886D01*
X231905916Y-107376774D01*
X231919206Y-107427040D01*
X231934775Y-107483739D01*
X231951828Y-107543926D01*
X231969573Y-107604655D01*
X231986209Y-107659719D01*
X231998419Y-107669267D01*
X232024453Y-107670638D01*
X232061083Y-107664058D01*
X232099949Y-107651710D01*
X232143395Y-107630426D01*
X232182879Y-107602067D01*
X232213897Y-107570569D01*
X232231947Y-107539869D01*
X232233390Y-107535063D01*
X232234451Y-107499287D01*
X232223673Y-107459457D01*
X232204036Y-107421487D01*
X232178524Y-107391289D01*
X232152987Y-107375639D01*
X232144802Y-107368599D01*
X232149396Y-107353439D01*
X232150702Y-107350945D01*
X232160429Y-107317640D01*
X232160834Y-107278082D01*
X232152513Y-107241032D01*
X232141869Y-107221349D01*
X232121992Y-107203249D01*
X232095968Y-107196637D01*
X232085026Y-107196302D01*
X232049623Y-107200785D01*
X232009261Y-107212743D01*
X231968462Y-107229936D01*
X231931749Y-107250125D01*
X231903644Y-107271070D01*
X231888668Y-107290534D01*
X231887652Y-107294024D01*
X230311420Y-107294024D01*
X230307242Y-107290268D01*
X230283803Y-107281857D01*
X230283513Y-107281856D01*
X230264687Y-107285767D01*
X230250160Y-107298967D01*
X230239093Y-107323653D01*
X230230648Y-107362022D01*
X230223986Y-107416272D01*
X230221517Y-107444341D01*
X230209858Y-107539957D01*
X230190364Y-107624180D01*
X230161104Y-107703693D01*
X230126117Y-107774388D01*
X230105512Y-107816095D01*
X230093483Y-107849344D01*
X230091069Y-107868489D01*
X229163280Y-107868489D01*
X229151960Y-107865408D01*
X229051310Y-107838907D01*
X228954384Y-107814263D01*
X228864522Y-107792337D01*
X228785063Y-107773988D01*
X228719347Y-107760075D01*
X228701392Y-107756631D01*
X228634942Y-107746634D01*
X228556871Y-107738595D01*
X228472993Y-107732809D01*
X228389124Y-107729569D01*
X228311078Y-107729170D01*
X228244670Y-107731906D01*
X228232615Y-107732918D01*
X228160581Y-107739669D01*
X228150390Y-107788812D01*
X228134910Y-107877579D01*
X228121999Y-107980703D01*
X228112133Y-108093642D01*
X228105787Y-108211859D01*
X228105642Y-108215819D01*
X228099572Y-108384550D01*
X228028992Y-108384550D01*
X227958412Y-108384550D01*
X227964504Y-108320385D01*
X227989044Y-108112516D01*
X228022630Y-107915925D01*
X228066488Y-107725829D01*
X228121842Y-107537445D01*
X228155914Y-107441626D01*
X228635983Y-107441626D01*
X228641224Y-107469244D01*
X228655276Y-107485236D01*
X228678194Y-107490932D01*
X228681308Y-107490987D01*
X228717691Y-107482672D01*
X228753132Y-107457263D01*
X228788404Y-107414067D01*
X228813942Y-107371902D01*
X228832431Y-107338358D01*
X228847144Y-107311918D01*
X228855935Y-107296425D01*
X228857432Y-107293993D01*
X228867550Y-107295134D01*
X228889879Y-107302559D01*
X228919562Y-107314180D01*
X228951739Y-107327910D01*
X228981552Y-107341664D01*
X229004141Y-107353355D01*
X229014648Y-107360895D01*
X229014883Y-107361608D01*
X229012842Y-107375096D01*
X229007552Y-107402322D01*
X228999966Y-107438483D01*
X228995871Y-107457235D01*
X228985960Y-107502787D01*
X228980186Y-107533677D01*
X228978555Y-107553803D01*
X228981074Y-107567060D01*
X228987747Y-107577346D01*
X228996077Y-107586047D01*
X229014963Y-107600922D01*
X229033485Y-107603266D01*
X229052627Y-107595305D01*
X229224221Y-107595305D01*
X229230025Y-107625907D01*
X229245784Y-107641858D01*
X229269022Y-107642891D01*
X229297258Y-107628737D01*
X229322143Y-107605900D01*
X229343913Y-107580172D01*
X229361460Y-107556600D01*
X229367029Y-107547615D01*
X229374980Y-107536060D01*
X229386363Y-107530558D01*
X229406513Y-107529941D01*
X229435962Y-107532537D01*
X229466948Y-107536293D01*
X229489336Y-107539977D01*
X229497414Y-107542374D01*
X229496709Y-107552642D01*
X229491261Y-107576056D01*
X229482227Y-107607689D01*
X229481548Y-107609895D01*
X229468377Y-107657064D01*
X229462855Y-107690185D01*
X229464754Y-107712509D01*
X229473278Y-107726736D01*
X229496353Y-107737482D01*
X229525696Y-107732092D01*
X229558484Y-107711131D01*
X229560601Y-107709300D01*
X229575858Y-107694311D01*
X229587398Y-107677615D01*
X229597103Y-107654885D01*
X229606856Y-107621796D01*
X229612803Y-107597577D01*
X229737544Y-107597577D01*
X229743351Y-107676046D01*
X229760622Y-107740393D01*
X229789133Y-107790165D01*
X229828662Y-107824911D01*
X229856369Y-107837937D01*
X229900495Y-107849665D01*
X229935059Y-107848772D01*
X229965111Y-107834799D01*
X229974972Y-107827178D01*
X229995309Y-107806028D01*
X230002193Y-107785132D01*
X230001843Y-107772974D01*
X229998283Y-107755114D01*
X229988696Y-107744605D01*
X229967932Y-107737369D01*
X229952410Y-107733846D01*
X229914006Y-107720980D01*
X229888475Y-107700319D01*
X229885868Y-107696975D01*
X229871127Y-107663186D01*
X229865587Y-107617055D01*
X229868640Y-107562530D01*
X229879677Y-107503555D01*
X229898092Y-107444077D01*
X229923277Y-107388041D01*
X229937112Y-107364279D01*
X229963617Y-107330243D01*
X229989317Y-107314514D01*
X230015998Y-107316564D01*
X230042295Y-107333151D01*
X230069405Y-107352300D01*
X230090005Y-107356557D01*
X230108566Y-107346548D01*
X230112352Y-107342966D01*
X230125587Y-107317495D01*
X230126107Y-107284977D01*
X230115519Y-107250868D01*
X230095432Y-107220623D01*
X230070565Y-107201216D01*
X230033026Y-107189902D01*
X229987630Y-107187647D01*
X229943210Y-107194400D01*
X229922195Y-107202032D01*
X229878459Y-107232241D01*
X229838004Y-107278102D01*
X229802361Y-107336336D01*
X229773060Y-107403662D01*
X229751632Y-107476803D01*
X229739608Y-107552477D01*
X229737544Y-107597577D01*
X229612803Y-107597577D01*
X229617464Y-107578593D01*
X229635970Y-107489829D01*
X229649707Y-107402282D01*
X229658477Y-107319042D01*
X229662080Y-107243201D01*
X229660318Y-107177849D01*
X229652993Y-107126079D01*
X229647724Y-107107742D01*
X229626705Y-107065388D01*
X229601053Y-107040944D01*
X229571904Y-107034207D01*
X229540395Y-107044973D01*
X229507662Y-107073037D01*
X229474842Y-107118195D01*
X229461862Y-107141154D01*
X229447780Y-107167480D01*
X229426432Y-107207022D01*
X229399694Y-107256325D01*
X229369440Y-107311934D01*
X229337544Y-107370393D01*
X229327194Y-107389327D01*
X229297416Y-107444531D01*
X229271016Y-107494928D01*
X229249310Y-107537883D01*
X229233615Y-107570763D01*
X229225248Y-107590933D01*
X229224221Y-107595305D01*
X229052627Y-107595305D01*
X229057893Y-107593115D01*
X229069232Y-107586466D01*
X229085545Y-107575502D01*
X229099198Y-107562909D01*
X229111421Y-107546105D01*
X229123444Y-107522512D01*
X229136499Y-107489548D01*
X229151814Y-107444635D01*
X229170621Y-107385193D01*
X229180510Y-107353151D01*
X229207509Y-107264144D01*
X229228621Y-107191260D01*
X229244098Y-107132629D01*
X229254192Y-107086380D01*
X229259154Y-107050643D01*
X229259235Y-107023546D01*
X229254688Y-107003220D01*
X229245763Y-106987794D01*
X229232712Y-106975397D01*
X229231428Y-106974430D01*
X229213170Y-106962409D01*
X229198587Y-106960415D01*
X229178481Y-106967908D01*
X229172082Y-106970928D01*
X229156458Y-106980209D01*
X229142481Y-106993853D01*
X229127846Y-107015189D01*
X229110249Y-107047547D01*
X229088827Y-107091246D01*
X229067420Y-107136121D01*
X229051546Y-107166057D01*
X229037730Y-107182857D01*
X229022497Y-107188324D01*
X229002371Y-107184262D01*
X228973877Y-107172473D01*
X228951478Y-107162512D01*
X228902126Y-107140802D01*
X228911934Y-107105279D01*
X228916858Y-107066487D01*
X228913720Y-107021877D01*
X228903931Y-106976707D01*
X228888898Y-106936233D01*
X228870031Y-106905710D01*
X228855006Y-106892923D01*
X228826816Y-106882313D01*
X228803231Y-106884344D01*
X228783215Y-106900299D01*
X228765730Y-106931461D01*
X228749742Y-106979112D01*
X228734819Y-107041649D01*
X228721256Y-107100394D01*
X228703938Y-107167584D01*
X228685392Y-107233721D01*
X228672590Y-107275680D01*
X228651720Y-107346176D01*
X228639500Y-107401047D01*
X228635983Y-107441626D01*
X228155914Y-107441626D01*
X228189920Y-107345992D01*
X228255665Y-107184365D01*
X228280034Y-107128970D01*
X228308652Y-107066496D01*
X228339849Y-107000346D01*
X228371957Y-106933923D01*
X228403308Y-106870629D01*
X228432232Y-106813869D01*
X228457062Y-106767045D01*
X228476128Y-106733560D01*
X228478866Y-106729138D01*
X228497343Y-106705670D01*
X228514234Y-106693775D01*
X228526280Y-106694809D01*
X228530284Y-106707760D01*
X228535292Y-106718285D01*
X228546919Y-106716290D01*
X228674502Y-106674585D01*
X228812671Y-106648640D01*
X228961385Y-106638451D01*
X229120602Y-106644016D01*
G37*
G36*
X229562745Y-107214622D02*
G01*
X229565660Y-107238651D01*
X229565840Y-107274270D01*
X229563205Y-107317858D01*
X229560277Y-107346021D01*
X229555271Y-107376213D01*
X229546414Y-107391574D01*
X229529016Y-107395250D01*
X229498389Y-107390384D01*
X229495142Y-107389702D01*
X229467438Y-107384045D01*
X229450379Y-107378900D01*
X229443813Y-107371021D01*
X229447588Y-107357164D01*
X229461551Y-107334084D01*
X229485552Y-107298536D01*
X229490528Y-107291154D01*
X229514691Y-107256418D01*
X229535651Y-107228493D01*
X229550860Y-107210641D01*
X229557176Y-107205808D01*
X229562745Y-107214622D01*
G37*
G36*
X232148279Y-107466357D02*
G01*
X232160567Y-107488591D01*
X232161426Y-107498451D01*
X232156753Y-107526057D01*
X232141125Y-107548141D01*
X232111593Y-107567801D01*
X232082778Y-107581068D01*
X232048220Y-107595507D01*
X232037788Y-107555130D01*
X232030274Y-107526442D01*
X232024180Y-107503834D01*
X232022911Y-107499322D01*
X232027334Y-107484130D01*
X232049999Y-107468933D01*
X232051055Y-107468428D01*
X232090404Y-107455428D01*
X232123852Y-107455020D01*
X232148279Y-107466357D01*
G37*
G36*
X232078682Y-107290411D02*
G01*
X232084749Y-107299420D01*
X232089363Y-107326442D01*
X232076072Y-107354500D01*
X232045771Y-107381803D01*
X232042419Y-107384045D01*
X232021389Y-107397379D01*
X232008325Y-107404852D01*
X232006742Y-107405434D01*
X232001731Y-107397474D01*
X231991974Y-107376960D01*
X231983463Y-107357433D01*
X231963183Y-107309432D01*
X231985315Y-107301018D01*
X232010396Y-107293332D01*
X232040216Y-107286457D01*
X232040913Y-107286325D01*
X232065114Y-107283995D01*
X232078682Y-107290411D01*
G37*
G36*
X230290827Y-109497577D02*
G01*
X230382529Y-109499048D01*
X230470230Y-109501892D01*
X230551971Y-109506138D01*
X230621623Y-109511428D01*
X230739079Y-109524386D01*
X230845927Y-109541231D01*
X230942711Y-109562238D01*
X231029973Y-109587682D01*
X231108257Y-109617840D01*
X231178106Y-109652986D01*
X231240064Y-109693397D01*
X231294673Y-109739347D01*
X231342477Y-109791112D01*
X231384019Y-109848968D01*
X231419842Y-109913189D01*
X231421781Y-109917167D01*
X231448803Y-109979670D01*
X231472570Y-110049040D01*
X231493258Y-110126093D01*
X231511048Y-110211651D01*
X231526115Y-110306531D01*
X231538639Y-110411553D01*
X231545625Y-110487152D01*
X231547670Y-110519365D01*
X231549377Y-110561497D01*
X231550746Y-110611766D01*
X231551777Y-110668387D01*
X231552470Y-110729575D01*
X231552826Y-110793546D01*
X231552845Y-110858517D01*
X231552526Y-110922702D01*
X231551870Y-110984317D01*
X231550877Y-111041578D01*
X231549546Y-111092702D01*
X231547879Y-111135902D01*
X231545874Y-111169396D01*
X231545597Y-111172847D01*
X231534645Y-111285640D01*
X231521357Y-111387709D01*
X231505470Y-111479865D01*
X231486722Y-111562922D01*
X231464850Y-111637692D01*
X231439591Y-111704986D01*
X231410683Y-111765617D01*
X231377862Y-111820397D01*
X231340866Y-111870138D01*
X231308184Y-111906748D01*
X231260918Y-111950477D01*
X231207643Y-111989559D01*
X231147717Y-112024210D01*
X231080496Y-112054648D01*
X231005337Y-112081089D01*
X230921597Y-112103749D01*
X230828632Y-112122846D01*
X230725799Y-112138595D01*
X230612455Y-112151215D01*
X230571638Y-112154812D01*
X230549623Y-112156167D01*
X230517654Y-112157492D01*
X230477496Y-112158763D01*
X230430915Y-112159953D01*
X230379676Y-112161039D01*
X230325546Y-112161995D01*
X230270288Y-112162797D01*
X230215670Y-112163420D01*
X230163457Y-112163838D01*
X230115414Y-112164028D01*
X230073307Y-112163963D01*
X230038902Y-112163620D01*
X230013963Y-112162973D01*
X230009017Y-112162739D01*
X229887747Y-112154872D01*
X229777347Y-112144973D01*
X229677107Y-112132837D01*
X229586317Y-112118255D01*
X229504268Y-112101021D01*
X229430251Y-112080928D01*
X229363557Y-112057769D01*
X229303476Y-112031336D01*
X229249299Y-112001424D01*
X229200316Y-111967824D01*
X229155819Y-111930331D01*
X229131815Y-111906748D01*
X229090690Y-111859506D01*
X229053998Y-111807334D01*
X229021492Y-111749466D01*
X228992923Y-111685136D01*
X228968044Y-111613581D01*
X228956093Y-111569235D01*
X229377975Y-111569235D01*
X229380274Y-111600528D01*
X229392852Y-111628916D01*
X229414275Y-111651801D01*
X229428590Y-111660745D01*
X229454740Y-111673931D01*
X230220000Y-111673931D01*
X230985259Y-111673931D01*
X231011409Y-111660745D01*
X231036902Y-111641792D01*
X231054306Y-111615971D01*
X231062186Y-111585881D01*
X231062024Y-111569235D01*
X231054106Y-111539923D01*
X231036373Y-111515251D01*
X231017106Y-111499577D01*
X230997731Y-111486391D01*
X230220000Y-111486391D01*
X229442268Y-111486391D01*
X229422893Y-111499577D01*
X229397517Y-111521897D01*
X229382683Y-111547729D01*
X229377975Y-111569235D01*
X228956093Y-111569235D01*
X228946607Y-111534034D01*
X228928365Y-111445731D01*
X228913070Y-111347906D01*
X228909062Y-111313502D01*
X229657135Y-111313502D01*
X229670443Y-111339875D01*
X229686868Y-111362001D01*
X229709849Y-111379742D01*
X229735470Y-111390537D01*
X229751149Y-111392621D01*
X229765370Y-111389995D01*
X229783940Y-111383353D01*
X229792396Y-111379434D01*
X229814565Y-111364347D01*
X229830164Y-111343121D01*
X229831854Y-111339875D01*
X229845163Y-111313502D01*
X230125986Y-111313502D01*
X230139294Y-111339875D01*
X230155719Y-111362001D01*
X230178700Y-111379742D01*
X230204321Y-111390537D01*
X230220000Y-111392621D01*
X230234221Y-111389995D01*
X230252791Y-111383353D01*
X230261247Y-111379434D01*
X230283416Y-111364347D01*
X230299015Y-111343121D01*
X230300705Y-111339875D01*
X230314013Y-111313502D01*
X230594837Y-111313502D01*
X230608145Y-111339875D01*
X230624570Y-111362001D01*
X230647551Y-111379742D01*
X230673172Y-111390537D01*
X230688850Y-111392621D01*
X230703072Y-111389995D01*
X230721642Y-111383353D01*
X230730098Y-111379434D01*
X230752267Y-111364347D01*
X230767866Y-111343121D01*
X230769556Y-111339875D01*
X230782864Y-111313502D01*
X230781277Y-110960825D01*
X230780940Y-110887751D01*
X230780616Y-110825485D01*
X230780269Y-110773111D01*
X230779866Y-110729718D01*
X230779372Y-110694389D01*
X230778754Y-110666212D01*
X230777976Y-110644273D01*
X230777005Y-110627657D01*
X230775806Y-110615451D01*
X230774345Y-110606741D01*
X230772588Y-110600612D01*
X230770500Y-110596151D01*
X230768048Y-110592445D01*
X230767430Y-110591605D01*
X230742769Y-110566623D01*
X230714009Y-110552245D01*
X230688850Y-110548689D01*
X230657443Y-110554329D01*
X230629462Y-110570940D01*
X230610271Y-110591605D01*
X230607730Y-110595267D01*
X230605562Y-110599474D01*
X230603732Y-110605139D01*
X230602206Y-110613177D01*
X230600950Y-110624500D01*
X230599930Y-110640023D01*
X230599111Y-110660660D01*
X230598459Y-110687325D01*
X230597939Y-110720932D01*
X230597518Y-110762394D01*
X230597162Y-110812626D01*
X230596835Y-110872541D01*
X230596504Y-110943055D01*
X230596424Y-110960825D01*
X230594837Y-111313502D01*
X230314013Y-111313502D01*
X230312426Y-110960825D01*
X230312089Y-110887751D01*
X230311765Y-110825485D01*
X230311418Y-110773111D01*
X230311015Y-110729718D01*
X230310521Y-110694389D01*
X230309903Y-110666212D01*
X230309125Y-110644273D01*
X230308154Y-110627657D01*
X230306955Y-110615451D01*
X230305494Y-110606741D01*
X230303737Y-110600612D01*
X230301649Y-110596151D01*
X230299197Y-110592445D01*
X230298579Y-110591605D01*
X230273918Y-110566623D01*
X230245158Y-110552245D01*
X230220000Y-110548689D01*
X230188592Y-110554329D01*
X230160611Y-110570940D01*
X230141420Y-110591605D01*
X230138879Y-110595267D01*
X230136711Y-110599474D01*
X230134881Y-110605139D01*
X230133355Y-110613177D01*
X230132099Y-110624500D01*
X230131079Y-110640023D01*
X230130260Y-110660660D01*
X230129608Y-110687325D01*
X230129088Y-110720932D01*
X230128667Y-110762394D01*
X230128311Y-110812626D01*
X230127984Y-110872541D01*
X230127653Y-110943055D01*
X230127573Y-110960825D01*
X230125986Y-111313502D01*
X229845163Y-111313502D01*
X229843575Y-110960825D01*
X229843239Y-110887751D01*
X229842914Y-110825485D01*
X229842567Y-110773111D01*
X229842164Y-110729718D01*
X229841670Y-110694389D01*
X229841052Y-110666212D01*
X229840274Y-110644273D01*
X229839303Y-110627657D01*
X229838104Y-110615451D01*
X229836643Y-110606741D01*
X229834886Y-110600612D01*
X229832798Y-110596151D01*
X229830346Y-110592445D01*
X229829728Y-110591605D01*
X229805067Y-110566623D01*
X229776307Y-110552245D01*
X229751149Y-110548689D01*
X229719741Y-110554329D01*
X229691760Y-110570940D01*
X229672569Y-110591605D01*
X229670028Y-110595267D01*
X229667860Y-110599474D01*
X229666030Y-110605139D01*
X229664504Y-110613177D01*
X229663248Y-110624500D01*
X229662228Y-110640023D01*
X229661409Y-110660660D01*
X229660757Y-110687325D01*
X229660237Y-110720932D01*
X229659816Y-110762394D01*
X229659460Y-110812626D01*
X229659133Y-110872541D01*
X229658802Y-110943055D01*
X229658722Y-110960825D01*
X229657135Y-111313502D01*
X228909062Y-111313502D01*
X228900475Y-111239793D01*
X228894374Y-111172847D01*
X228892329Y-111140634D01*
X228890622Y-111098502D01*
X228889254Y-111048233D01*
X228888222Y-110991612D01*
X228887529Y-110930424D01*
X228887173Y-110866453D01*
X228887154Y-110801482D01*
X228887473Y-110737297D01*
X228888129Y-110675682D01*
X228889122Y-110618421D01*
X228890453Y-110567297D01*
X228890941Y-110554660D01*
X229284114Y-110554660D01*
X229291910Y-110582938D01*
X229307724Y-110608001D01*
X229330719Y-110627062D01*
X229334820Y-110629273D01*
X229354349Y-110638250D01*
X229369222Y-110641746D01*
X229384799Y-110640371D01*
X229399605Y-110636669D01*
X229410346Y-110631434D01*
X229428559Y-110620086D01*
X229452535Y-110603797D01*
X229480563Y-110583739D01*
X229510933Y-110561083D01*
X229519748Y-110554337D01*
X229597495Y-110494699D01*
X229666973Y-110441838D01*
X229729012Y-110395145D01*
X229784441Y-110354007D01*
X229834091Y-110317814D01*
X229878791Y-110285955D01*
X229919370Y-110257818D01*
X229953341Y-110234984D01*
X230006760Y-110200204D01*
X230057015Y-110168551D01*
X230102785Y-110140813D01*
X230142748Y-110117776D01*
X230175582Y-110100226D01*
X230195431Y-110090838D01*
X230206811Y-110086340D01*
X230216994Y-110084082D01*
X230227819Y-110084642D01*
X230241125Y-110088602D01*
X230258752Y-110096541D01*
X230282539Y-110109040D01*
X230314325Y-110126678D01*
X230321064Y-110130458D01*
X230360777Y-110153475D01*
X230403162Y-110179518D01*
X230448926Y-110209085D01*
X230498774Y-110242677D01*
X230553412Y-110280792D01*
X230613546Y-110323931D01*
X230679881Y-110372592D01*
X230753124Y-110427275D01*
X230833980Y-110488480D01*
X230920332Y-110554537D01*
X230956014Y-110581407D01*
X230987374Y-110603945D01*
X231013186Y-110621322D01*
X231032227Y-110632706D01*
X231041941Y-110636989D01*
X231070971Y-110639272D01*
X231100798Y-110632232D01*
X231124242Y-110618934D01*
X231141559Y-110598463D01*
X231152215Y-110571735D01*
X231155600Y-110542531D01*
X231151102Y-110514632D01*
X231143615Y-110498913D01*
X231134330Y-110488442D01*
X231116590Y-110471944D01*
X231091443Y-110450251D01*
X231059943Y-110424191D01*
X231023138Y-110394596D01*
X230982081Y-110362294D01*
X230937822Y-110328116D01*
X230891411Y-110292891D01*
X230843901Y-110257450D01*
X230796342Y-110222621D01*
X230766834Y-110201373D01*
X230689182Y-110146379D01*
X230619524Y-110098205D01*
X230556824Y-110056194D01*
X230500049Y-110019688D01*
X230448166Y-109988031D01*
X230400139Y-109960564D01*
X230354936Y-109936631D01*
X230334352Y-109926407D01*
X230306892Y-109913233D01*
X230286729Y-109904417D01*
X230270668Y-109899089D01*
X230255514Y-109896377D01*
X230238075Y-109895414D01*
X230220204Y-109895316D01*
X230192827Y-109895981D01*
X230172038Y-109898557D01*
X230152735Y-109904092D01*
X230129816Y-109913633D01*
X230128857Y-109914065D01*
X230083457Y-109936039D01*
X230033306Y-109963187D01*
X229977701Y-109995950D01*
X229915941Y-110034765D01*
X229847325Y-110080070D01*
X229771151Y-110132305D01*
X229704263Y-110179400D01*
X229650757Y-110217823D01*
X229597661Y-110256656D01*
X229545924Y-110295156D01*
X229496494Y-110332578D01*
X229450319Y-110368181D01*
X229408346Y-110401220D01*
X229371524Y-110430952D01*
X229340799Y-110456635D01*
X229317121Y-110477524D01*
X229301437Y-110492876D01*
X229295923Y-110499618D01*
X229285173Y-110525957D01*
X229284114Y-110554660D01*
X228890941Y-110554660D01*
X228892120Y-110524097D01*
X228894125Y-110490603D01*
X228894402Y-110487152D01*
X228905626Y-110372362D01*
X228919387Y-110268330D01*
X228935931Y-110174323D01*
X228955502Y-110089604D01*
X228978347Y-110013438D01*
X229004710Y-109945090D01*
X229034839Y-109883823D01*
X229068978Y-109828902D01*
X229107372Y-109779591D01*
X229143251Y-109741815D01*
X229194697Y-109697482D01*
X229251972Y-109658404D01*
X229315928Y-109624249D01*
X229387415Y-109594683D01*
X229467285Y-109569373D01*
X229556388Y-109547988D01*
X229655575Y-109530194D01*
X229701333Y-109523591D01*
X229766223Y-109516166D01*
X229840817Y-109509934D01*
X229923158Y-109504921D01*
X230011287Y-109501153D01*
X230103247Y-109498656D01*
X230197080Y-109497455D01*
X230290827Y-109497577D01*
G37*
D11*
%TO.C,J2*%
X223310000Y-68580000D02*
X223310000Y-116950000D01*
X220550000Y-116950000D02*
X223310000Y-116950000D01*
X220550000Y-68580000D02*
X223310000Y-68580000D01*
X220550000Y-68580000D02*
X220550000Y-116950000D01*
X220550000Y-67310000D02*
X220550000Y-65930000D01*
X220550000Y-65930000D02*
X221930000Y-65930000D01*
%TO.C,U1*%
X227210000Y-91830000D02*
X226970000Y-91500000D01*
X227450000Y-91500000D01*
X227210000Y-91830000D01*
G36*
X227210000Y-91830000D02*
G01*
X226970000Y-91500000D01*
X227450000Y-91500000D01*
X227210000Y-91830000D01*
G37*
X234430000Y-99050000D02*
X234430000Y-98400000D01*
X234430000Y-91830000D02*
X234430000Y-92480000D01*
X233780000Y-99050000D02*
X234430000Y-99050000D01*
X233780000Y-91830000D02*
X234430000Y-91830000D01*
X227860000Y-99050000D02*
X227210000Y-99050000D01*
X227860000Y-91830000D02*
X227510000Y-91830000D01*
X227210000Y-99050000D02*
X227210000Y-98400000D01*
X227210000Y-92480000D02*
X227210000Y-92070000D01*
%TO.C,C4*%
X226420000Y-91767836D02*
X226420000Y-91552164D01*
X225700000Y-91767836D02*
X225700000Y-91552164D01*
%TO.C,C13*%
X227550580Y-74110000D02*
X227269420Y-74110000D01*
X227550580Y-75130000D02*
X227269420Y-75130000D01*
%TO.C,C5*%
X234160000Y-90697836D02*
X234160000Y-90482164D01*
X234880000Y-90697836D02*
X234880000Y-90482164D01*
%TO.C,C6*%
X231510000Y-87497836D02*
X231510000Y-87282164D01*
X232230000Y-87497836D02*
X232230000Y-87282164D01*
%TO.C,J1*%
X226120000Y-66440000D02*
X226120000Y-64540000D01*
X226120000Y-70340000D02*
X226120000Y-68340000D01*
X235520000Y-64540000D02*
X226120000Y-64540000D01*
X235520000Y-66440000D02*
X235520000Y-64540000D01*
X235520000Y-70340000D02*
X235520000Y-68340000D01*
%TO.C,R3*%
X231115000Y-89776359D02*
X231115000Y-90083641D01*
X231875000Y-89776359D02*
X231875000Y-90083641D01*
%TO.C,R2*%
X231830000Y-74606359D02*
X231830000Y-74913641D01*
X232590000Y-74606359D02*
X232590000Y-74913641D01*
%TO.C,C14*%
X228560580Y-79880000D02*
X228279420Y-79880000D01*
X228560580Y-80900000D02*
X228279420Y-80900000D01*
%TO.C,R5*%
X230913641Y-100370000D02*
X230606359Y-100370000D01*
X230913641Y-101130000D02*
X230606359Y-101130000D01*
%TO.C,J4*%
X226900000Y-116710000D02*
X226900000Y-115330000D01*
X228280000Y-116710000D02*
X226900000Y-116710000D01*
X229550000Y-113950000D02*
X234740000Y-113950000D01*
X229550000Y-116710000D02*
X229550000Y-113950000D01*
X229550000Y-116710000D02*
X234740000Y-116710000D01*
X234740000Y-116710000D02*
X234740000Y-113950000D01*
%TO.C,SW1*%
X232300000Y-77620000D02*
X232600000Y-77620000D01*
X232300000Y-81760000D02*
X232300000Y-77620000D01*
X232600000Y-81760000D02*
X232300000Y-81760000D01*
X235140000Y-77620000D02*
X235440000Y-77620000D01*
X235440000Y-77620000D02*
X235440000Y-81760000D01*
X235440000Y-81760000D02*
X235140000Y-81760000D01*
%TO.C,C10*%
X233300000Y-100972164D02*
X233300000Y-101187836D01*
X234020000Y-100972164D02*
X234020000Y-101187836D01*
%TO.C,C11*%
X233185000Y-90367836D02*
X233185000Y-90152164D01*
X233905000Y-90367836D02*
X233905000Y-90152164D01*
%TO.C,R6*%
X234191359Y-82710000D02*
X234498641Y-82710000D01*
X234191359Y-83470000D02*
X234498641Y-83470000D01*
%TO.C,C15*%
X226960000Y-103132164D02*
X226960000Y-103347836D01*
X227680000Y-103132164D02*
X227680000Y-103347836D01*
%TO.C,R7*%
X226386359Y-85430000D02*
X226693641Y-85430000D01*
X226386359Y-86190000D02*
X226693641Y-86190000D01*
%TO.C,C7*%
X232470000Y-86757836D02*
X232470000Y-86542164D01*
X233190000Y-86757836D02*
X233190000Y-86542164D01*
%TO.C,C1*%
X235689190Y-90186693D02*
X235841693Y-90034190D01*
X236198307Y-90695810D02*
X236350810Y-90543307D01*
%TO.C,Y1*%
X232030000Y-101360000D02*
X227910000Y-101360000D01*
X232030000Y-104780000D02*
X232030000Y-101360000D01*
%TO.C,C2*%
X232260000Y-100962164D02*
X232260000Y-101177836D01*
X232980000Y-100962164D02*
X232980000Y-101177836D01*
%TO.C,U4*%
X226120000Y-86630000D02*
X229120000Y-86630000D01*
X226120000Y-88900000D02*
X229120000Y-88900000D01*
X225570000Y-86715000D02*
X225290000Y-86715000D01*
X225570000Y-86435000D01*
X225570000Y-86715000D01*
G36*
X225570000Y-86715000D02*
G01*
X225290000Y-86715000D01*
X225570000Y-86435000D01*
X225570000Y-86715000D01*
G37*
%TO.C,C3*%
X225477836Y-96310000D02*
X225262164Y-96310000D01*
X225477836Y-97030000D02*
X225262164Y-97030000D01*
%TO.C,U2*%
X226810000Y-77490000D02*
X226810000Y-76840000D01*
X226810000Y-77490000D02*
X226810000Y-78140000D01*
X229930000Y-77490000D02*
X229930000Y-76840000D01*
X229930000Y-77490000D02*
X229930000Y-78140000D01*
X226860000Y-78652500D02*
X226530000Y-78892500D01*
X226530000Y-78412500D01*
X226860000Y-78652500D01*
G36*
X226860000Y-78652500D02*
G01*
X226530000Y-78892500D01*
X226530000Y-78412500D01*
X226860000Y-78652500D01*
G37*
%TO.C,C17*%
X228577836Y-85430000D02*
X228362164Y-85430000D01*
X228577836Y-86150000D02*
X228362164Y-86150000D01*
%TO.C,R4*%
X232165000Y-89776359D02*
X232165000Y-90083641D01*
X232925000Y-89776359D02*
X232925000Y-90083641D01*
%TO.C,C8*%
X235742164Y-91655000D02*
X235957836Y-91655000D01*
X235742164Y-92375000D02*
X235957836Y-92375000D01*
%TO.C,C12*%
X230485000Y-87492836D02*
X230485000Y-87277164D01*
X231205000Y-87492836D02*
X231205000Y-87277164D01*
%TO.C,R1*%
X229090000Y-74676359D02*
X229090000Y-74983641D01*
X229850000Y-74676359D02*
X229850000Y-74983641D01*
%TO.C,J3*%
X238330000Y-65930000D02*
X239710000Y-65930000D01*
X238330000Y-67310000D02*
X238330000Y-65930000D01*
X238330000Y-68580000D02*
X238330000Y-116950000D01*
X238330000Y-68580000D02*
X241090000Y-68580000D01*
X238330000Y-116950000D02*
X241090000Y-116950000D01*
X241090000Y-68580000D02*
X241090000Y-116950000D01*
%TO.C,C9*%
X236732164Y-96060000D02*
X236947836Y-96060000D01*
X236732164Y-96780000D02*
X236947836Y-96780000D01*
%TO.C,C16*%
X232385000Y-103047836D02*
X232385000Y-102832164D01*
X233105000Y-103047836D02*
X233105000Y-102832164D01*
%TD*%
M02*
