%TF.GenerationSoftware,KiCad,Pcbnew,9.0.5*%
%TF.CreationDate,2025-11-18T21:13:20-05:00*%
%TF.ProjectId,JayBoard,4a617942-6f61-4726-942e-6b696361645f,rev?*%
%TF.SameCoordinates,Original*%
%TF.FileFunction,Soldermask,Bot*%
%TF.FilePolarity,Negative*%
%FSLAX46Y46*%
G04 Gerber Fmt 4.6, Leading zero omitted, Abs format (unit mm)*
G04 Created by KiCad (PCBNEW 9.0.5) date 2025-11-18 21:13:20*
%MOMM*%
%LPD*%
G01*
G04 APERTURE LIST*
%ADD10C,1.700000*%
%ADD11R,1.700000X1.700000*%
%ADD12C,0.650000*%
%ADD13O,1.000000X2.100000*%
%ADD14O,1.000000X1.600000*%
G04 APERTURE END LIST*
D10*
%TO.C,J2*%
X221930000Y-115570000D03*
X221930000Y-113030000D03*
X221930000Y-110490000D03*
X221930000Y-107950000D03*
X221930000Y-105410000D03*
X221930000Y-102870000D03*
X221930000Y-100330000D03*
X221930000Y-97790000D03*
X221930000Y-95250000D03*
X221930000Y-92710000D03*
X221930000Y-90170000D03*
X221930000Y-87630000D03*
X221930000Y-85090000D03*
X221930000Y-82550000D03*
X221930000Y-80010000D03*
X221930000Y-77470000D03*
X221930000Y-74930000D03*
X221930000Y-72390000D03*
X221930000Y-69850000D03*
D11*
X221930000Y-67310000D03*
%TD*%
D12*
%TO.C,J1*%
X233710000Y-71040000D03*
X227930000Y-71040000D03*
D13*
X235140000Y-71570000D03*
D14*
X235140000Y-67390000D03*
D13*
X226500000Y-71570000D03*
D14*
X226500000Y-67390000D03*
%TD*%
D11*
%TO.C,J4*%
X228280000Y-115330000D03*
D10*
X230820000Y-115330000D03*
X233360000Y-115330000D03*
%TD*%
D11*
%TO.C,J3*%
X239710000Y-67310000D03*
D10*
X239710000Y-69850000D03*
X239710000Y-72390000D03*
X239710000Y-74930000D03*
X239710000Y-77470000D03*
X239710000Y-80010000D03*
X239710000Y-82550000D03*
X239710000Y-85090000D03*
X239710000Y-87630000D03*
X239710000Y-90170000D03*
X239710000Y-92710000D03*
X239710000Y-95250000D03*
X239710000Y-97790000D03*
X239710000Y-100330000D03*
X239710000Y-102870000D03*
X239710000Y-105410000D03*
X239710000Y-107950000D03*
X239710000Y-110490000D03*
X239710000Y-113030000D03*
X239710000Y-115570000D03*
%TD*%
M02*
