%TF.GenerationSoftware,KiCad,Pcbnew,9.0.5*%
%TF.CreationDate,2025-11-18T21:13:20-05:00*%
%TF.ProjectId,JayBoard,4a617942-6f61-4726-942e-6b696361645f,rev?*%
%TF.SameCoordinates,Original*%
%TF.FileFunction,Copper,L2,Bot*%
%TF.FilePolarity,Positive*%
%FSLAX46Y46*%
G04 Gerber Fmt 4.6, Leading zero omitted, Abs format (unit mm)*
G04 Created by KiCad (PCBNEW 9.0.5) date 2025-11-18 21:13:20*
%MOMM*%
%LPD*%
G01*
G04 APERTURE LIST*
%TA.AperFunction,ComponentPad*%
%ADD10C,1.700000*%
%TD*%
%TA.AperFunction,ComponentPad*%
%ADD11R,1.700000X1.700000*%
%TD*%
%TA.AperFunction,HeatsinkPad*%
%ADD12O,1.000000X2.100000*%
%TD*%
%TA.AperFunction,HeatsinkPad*%
%ADD13O,1.000000X1.600000*%
%TD*%
%TA.AperFunction,ViaPad*%
%ADD14C,0.600000*%
%TD*%
%TA.AperFunction,Conductor*%
%ADD15C,0.200000*%
%TD*%
G04 APERTURE END LIST*
D10*
%TO.P,J2,20,Pin_20*%
%TO.N,GPIO15*%
X221930000Y-115570000D03*
%TO.P,J2,19,Pin_19*%
%TO.N,GPIO14*%
X221930000Y-113030000D03*
%TO.P,J2,18,Pin_18*%
%TO.N,GND*%
X221930000Y-110490000D03*
%TO.P,J2,17,Pin_17*%
%TO.N,GPIO13*%
X221930000Y-107950000D03*
%TO.P,J2,16,Pin_16*%
%TO.N,GPIO12*%
X221930000Y-105410000D03*
%TO.P,J2,15,Pin_15*%
%TO.N,GPIO11*%
X221930000Y-102870000D03*
%TO.P,J2,14,Pin_14*%
%TO.N,GPIO10*%
X221930000Y-100330000D03*
%TO.P,J2,13,Pin_13*%
%TO.N,GND*%
X221930000Y-97790000D03*
%TO.P,J2,12,Pin_12*%
%TO.N,GPIO9*%
X221930000Y-95250000D03*
%TO.P,J2,11,Pin_11*%
%TO.N,GPIO8*%
X221930000Y-92710000D03*
%TO.P,J2,10,Pin_10*%
%TO.N,GPIO7*%
X221930000Y-90170000D03*
%TO.P,J2,9,Pin_9*%
%TO.N,GPIO6*%
X221930000Y-87630000D03*
%TO.P,J2,8,Pin_8*%
%TO.N,GND*%
X221930000Y-85090000D03*
%TO.P,J2,7,Pin_7*%
%TO.N,GPIO5*%
X221930000Y-82550000D03*
%TO.P,J2,6,Pin_6*%
%TO.N,GPIO4*%
X221930000Y-80010000D03*
%TO.P,J2,5,Pin_5*%
%TO.N,GPIO3*%
X221930000Y-77470000D03*
%TO.P,J2,4,Pin_4*%
%TO.N,GPIO2*%
X221930000Y-74930000D03*
%TO.P,J2,3,Pin_3*%
%TO.N,GND*%
X221930000Y-72390000D03*
%TO.P,J2,2,Pin_2*%
%TO.N,GPIO1*%
X221930000Y-69850000D03*
D11*
%TO.P,J2,1,Pin_1*%
%TO.N,GPIO0*%
X221930000Y-67310000D03*
%TD*%
D12*
%TO.P,J1,S1,SHIELD*%
%TO.N,GND*%
X235140000Y-71570000D03*
D13*
X235140000Y-67390000D03*
D12*
X226500000Y-71570000D03*
D13*
X226500000Y-67390000D03*
%TD*%
D11*
%TO.P,J4,1,Pin_1*%
%TO.N,SWCLK*%
X228280000Y-115330000D03*
D10*
%TO.P,J4,2,Pin_2*%
%TO.N,GND*%
X230820000Y-115330000D03*
%TO.P,J4,3,Pin_3*%
%TO.N,SWD*%
X233360000Y-115330000D03*
%TD*%
D11*
%TO.P,J3,1,Pin_1*%
%TO.N,VBUS*%
X239710000Y-67310000D03*
D10*
%TO.P,J3,2,Pin_2*%
%TO.N,GPIO29_ADC3*%
X239710000Y-69850000D03*
%TO.P,J3,3,Pin_3*%
%TO.N,GND*%
X239710000Y-72390000D03*
%TO.P,J3,4,Pin_4*%
%TO.N,GPIO28_ADC2*%
X239710000Y-74930000D03*
%TO.P,J3,5,Pin_5*%
%TO.N,+3V3*%
X239710000Y-77470000D03*
%TO.P,J3,6,Pin_6*%
%TO.N,GPIO27_ADC1*%
X239710000Y-80010000D03*
%TO.P,J3,7,Pin_7*%
%TO.N,GPIO26_ADC0*%
X239710000Y-82550000D03*
%TO.P,J3,8,Pin_8*%
%TO.N,GND*%
X239710000Y-85090000D03*
%TO.P,J3,9,Pin_9*%
%TO.N,GPIO24*%
X239710000Y-87630000D03*
%TO.P,J3,10,Pin_10*%
%TO.N,GPIO23*%
X239710000Y-90170000D03*
%TO.P,J3,11,Pin_11*%
%TO.N,RUN*%
X239710000Y-92710000D03*
%TO.P,J3,12,Pin_12*%
%TO.N,GPIO22*%
X239710000Y-95250000D03*
%TO.P,J3,13,Pin_13*%
%TO.N,GND*%
X239710000Y-97790000D03*
%TO.P,J3,14,Pin_14*%
%TO.N,GPIO21*%
X239710000Y-100330000D03*
%TO.P,J3,15,Pin_15*%
%TO.N,GPIO20*%
X239710000Y-102870000D03*
%TO.P,J3,16,Pin_16*%
%TO.N,GPIO19*%
X239710000Y-105410000D03*
%TO.P,J3,17,Pin_17*%
%TO.N,GPIO18*%
X239710000Y-107950000D03*
%TO.P,J3,18,Pin_18*%
%TO.N,GND*%
X239710000Y-110490000D03*
%TO.P,J3,19,Pin_19*%
%TO.N,GPIO17*%
X239710000Y-113030000D03*
%TO.P,J3,20,Pin_20*%
%TO.N,GPIO16*%
X239710000Y-115570000D03*
%TD*%
D14*
%TO.N,GND*%
X235750000Y-85960000D03*
X235770000Y-88940000D03*
X227440000Y-101352000D03*
X237540000Y-78230000D03*
X232424498Y-85833972D03*
X235110000Y-85350000D03*
X222590000Y-86400000D03*
X228120000Y-83570000D03*
X232303587Y-76580609D03*
X237040000Y-70190000D03*
X227644265Y-89355735D03*
X226071000Y-90046627D03*
X228770000Y-94440000D03*
X235390000Y-101730000D03*
X235835000Y-103640000D03*
X237450000Y-107970000D03*
X229710000Y-93389000D03*
X223598163Y-97813308D03*
X227610000Y-110720000D03*
X226350000Y-102940000D03*
X223970000Y-108400000D03*
%TO.N,GPIO8*%
X228311075Y-97891021D03*
%TO.N,QSPI_SS*%
X233316726Y-82690000D03*
X228270000Y-82690000D03*
%TO.N,SWD*%
X232053101Y-97724572D03*
%TO.N,RUN*%
X233321180Y-97329257D03*
%TO.N,GPIO28_ADC2*%
X236507000Y-93440000D03*
%TO.N,SWCLK*%
X231268528Y-97539999D03*
%TO.N,GPIO29_ADC3*%
X235818236Y-93033049D03*
%TO.N,GPIO2*%
X225360000Y-93840000D03*
%TO.N,GPIO0*%
X226180053Y-92933738D03*
%TO.N,GPIO1*%
X225384263Y-93015734D03*
%TO.N,+1V1*%
X234270000Y-100590000D03*
X230035002Y-87047591D03*
X232208561Y-92940000D03*
%TO.N,+3V3*%
X231444387Y-88622083D03*
X233090000Y-85390000D03*
X231220000Y-91204082D03*
X235330000Y-89993231D03*
%TO.N,GND*%
X228870000Y-95390000D03*
X232871000Y-93390000D03*
X227024265Y-88735735D03*
X239040000Y-99140000D03*
X230270000Y-78590000D03*
X224178008Y-96640000D03*
X240445000Y-99040000D03*
X226370000Y-78890000D03*
X226470000Y-84590000D03*
X229832649Y-98054932D03*
X226370000Y-77990000D03*
X231931736Y-86326736D03*
X230270000Y-79590000D03*
X228135446Y-85290000D03*
X236945000Y-67440000D03*
X230820000Y-95440000D03*
X234345000Y-88240000D03*
X234145000Y-73540000D03*
X230270000Y-77690000D03*
X228970000Y-93790000D03*
X223870000Y-79890000D03*
X226370000Y-79890000D03*
X230870000Y-93590000D03*
X235145000Y-87040000D03*
X237860000Y-96546441D03*
X235170000Y-100290000D03*
X226270000Y-90590000D03*
X231070000Y-85490000D03*
X232871000Y-94680000D03*
X227470000Y-91690000D03*
X235770000Y-88940000D03*
X232871000Y-96150000D03*
X223670000Y-77990000D03*
X234245000Y-68540000D03*
%TD*%
D15*
%TO.N,GND*%
X235750000Y-85960000D02*
X235750000Y-88920000D01*
X235750000Y-88920000D02*
X235770000Y-88940000D01*
X227440000Y-101352000D02*
X227440000Y-100447581D01*
X227440000Y-100447581D02*
X229832649Y-98054932D01*
X224178008Y-96640000D02*
X226030029Y-98492021D01*
X228912075Y-98139964D02*
X228912075Y-93232075D01*
X228912075Y-93232075D02*
X226270000Y-90590000D01*
X226030029Y-98492021D02*
X228560018Y-98492021D01*
X228560018Y-98492021D02*
X228912075Y-98139964D01*
X228870000Y-95390000D02*
X228870000Y-93890000D01*
X228870000Y-93890000D02*
X228970000Y-93790000D01*
X237540000Y-78230000D02*
X237540000Y-82920000D01*
X237540000Y-82920000D02*
X239710000Y-85090000D01*
X234549000Y-84789000D02*
X232841057Y-84789000D01*
X235110000Y-85350000D02*
X234549000Y-84789000D01*
X232841057Y-84789000D02*
X232424498Y-85205559D01*
X232424498Y-85205559D02*
X232424498Y-85833972D01*
X224268000Y-88078000D02*
X224268000Y-93597943D01*
X222590000Y-86400000D02*
X224268000Y-88078000D01*
X224268000Y-93597943D02*
X225111057Y-94441000D01*
X225111057Y-94441000D02*
X225608943Y-94441000D01*
X225608943Y-94441000D02*
X226781053Y-93268890D01*
X226781053Y-93268890D02*
X226781053Y-84901053D01*
X226781053Y-84901053D02*
X226470000Y-84590000D01*
X228120000Y-83570000D02*
X226370000Y-81820000D01*
X226370000Y-81820000D02*
X226370000Y-79890000D01*
X232303587Y-76580609D02*
X231379391Y-76580609D01*
X231379391Y-76580609D02*
X230270000Y-77690000D01*
X237040000Y-70190000D02*
X236945000Y-70095000D01*
X236945000Y-70095000D02*
X236945000Y-67440000D01*
X227644265Y-89355735D02*
X227644265Y-85781181D01*
X227644265Y-85781181D02*
X228135446Y-85290000D01*
X226071000Y-90046627D02*
X226071000Y-89689000D01*
X226071000Y-89689000D02*
X227024265Y-88735735D01*
X227470000Y-93140000D02*
X227470000Y-91690000D01*
X228770000Y-94440000D02*
X227470000Y-93140000D01*
X235390000Y-101730000D02*
X237980000Y-99140000D01*
X237980000Y-99140000D02*
X239040000Y-99140000D01*
X235835000Y-106355000D02*
X235835000Y-103640000D01*
X237450000Y-107970000D02*
X235835000Y-106355000D01*
X229710000Y-93389000D02*
X229832649Y-93511649D01*
X229832649Y-93511649D02*
X229832649Y-98054932D01*
X223598163Y-97219845D02*
X224178008Y-96640000D01*
X223598163Y-97813308D02*
X223598163Y-97219845D01*
X227610000Y-110720000D02*
X226290000Y-110720000D01*
X226290000Y-110720000D02*
X223970000Y-108400000D01*
X226350000Y-106020000D02*
X226350000Y-102940000D01*
X223970000Y-108400000D02*
X226350000Y-106020000D01*
%TO.N,QSPI_SS*%
X228270000Y-82690000D02*
X233316726Y-82690000D01*
%TO.N,SWD*%
X232053101Y-97724572D02*
X232220417Y-97891888D01*
X232220417Y-97891888D02*
X232220417Y-114190417D01*
X232220417Y-114190417D02*
X233360000Y-115330000D01*
%TO.N,RUN*%
X233741923Y-97750000D02*
X237810000Y-97750000D01*
X237810000Y-97750000D02*
X238080000Y-97480000D01*
X238080000Y-97480000D02*
X238090000Y-97480000D01*
X238090000Y-97480000D02*
X238460000Y-97110000D01*
X233321180Y-97329257D02*
X233741923Y-97750000D01*
X238460000Y-97110000D02*
X238460000Y-93960000D01*
X238460000Y-93960000D02*
X239710000Y-92710000D01*
%TO.N,GPIO28_ADC2*%
X236770000Y-77870000D02*
X239710000Y-74930000D01*
X236770000Y-93177000D02*
X236770000Y-77870000D01*
X236507000Y-93440000D02*
X236770000Y-93177000D01*
%TO.N,SWCLK*%
X231268528Y-97539999D02*
X228280000Y-100528527D01*
X228280000Y-100528527D02*
X228280000Y-115330000D01*
%TO.N,GPIO29_ADC3*%
X236370000Y-73190000D02*
X239710000Y-69850000D01*
X236370000Y-92481285D02*
X236370000Y-73190000D01*
X235818236Y-93033049D02*
X236370000Y-92481285D01*
%TO.N,GPIO2*%
X225360000Y-93840000D02*
X224669000Y-93149000D01*
X224669000Y-77669000D02*
X221930000Y-74930000D01*
X224669000Y-93149000D02*
X224669000Y-77669000D01*
%TO.N,GPIO0*%
X225471000Y-92224685D02*
X225471000Y-70851000D01*
X226180053Y-92933738D02*
X225471000Y-92224685D01*
X225471000Y-70851000D02*
X221930000Y-67310000D01*
%TO.N,GPIO1*%
X225070000Y-72990000D02*
X221930000Y-69850000D01*
X225384263Y-93015734D02*
X225070000Y-92701471D01*
X225070000Y-92701471D02*
X225070000Y-72990000D01*
%TO.N,GPIO8*%
X227963641Y-96837307D02*
X226057307Y-96837307D01*
X228311075Y-97891021D02*
X228311075Y-97184741D01*
X226057307Y-96837307D02*
X221930000Y-92710000D01*
X228311075Y-97184741D02*
X227963641Y-96837307D01*
%TO.N,+1V1*%
X232170000Y-93090000D02*
X232320057Y-93090000D01*
X232020000Y-92940000D02*
X232208561Y-92940000D01*
X232320057Y-93090000D02*
X232445029Y-92965028D01*
X232720180Y-99040180D02*
X232720180Y-97190123D01*
X230035002Y-87047591D02*
X230035002Y-90955002D01*
X232208561Y-96678504D02*
X232208561Y-92940000D01*
X230120000Y-91040000D02*
X232020000Y-92940000D01*
X232720180Y-97190123D02*
X232208561Y-96678504D01*
X230035002Y-90955002D02*
X230120000Y-91040000D01*
X230120000Y-91040000D02*
X232170000Y-93090000D01*
X234270000Y-100590000D02*
X232720180Y-99040180D01*
%TO.N,+3V3*%
X231220000Y-91204082D02*
X231220000Y-88846470D01*
X234998231Y-89993231D02*
X235330000Y-89993231D01*
X231220000Y-88846470D02*
X231444387Y-88622083D01*
X233050000Y-85430000D02*
X233050000Y-88045000D01*
X233090000Y-85390000D02*
X233050000Y-85430000D01*
X233050000Y-88045000D02*
X234998231Y-89993231D01*
%TO.N,GND*%
X231095000Y-85490000D02*
X231931736Y-86326736D01*
X231070000Y-85490000D02*
X231095000Y-85490000D01*
%TD*%
M02*
